G04 EAGLE Gerber RS-274X export*
G75*
%MOMM*%
%FSLAX34Y34*%
%LPD*%
%INBottom Copper*%
%IPPOS*%
%AMOC8*
5,1,8,0,0,1.08239X$1,22.5*%
G01*
%ADD10P,2.089446X8X22.500000*%
%ADD11P,2.089446X8X202.500000*%
%ADD12P,2.089446X8X112.500000*%
%ADD13P,2.089446X8X292.500000*%
%ADD14C,2.540000*%
%ADD15C,1.879600*%
%ADD16C,2.700000*%
%ADD17C,1.650000*%
%ADD18C,1.524000*%
%ADD19C,1.320800*%
%ADD20C,1.879600*%
%ADD21R,1.508000X1.508000*%
%ADD22C,1.508000*%
%ADD23C,0.812800*%
%ADD24C,1.206400*%
%ADD25C,0.756400*%
%ADD26C,0.152400*%
%ADD27C,1.016000*%
%ADD28C,1.500000*%
%ADD29C,0.906400*%
%ADD30C,0.856400*%
%ADD31C,0.406400*%
%ADD32C,0.254000*%
%ADD33C,0.806400*%


D10*
X-1155200Y-270000D03*
X-1155200Y-295400D03*
X-1155200Y-320800D03*
X-1155200Y-346200D03*
X-1155200Y-371600D03*
X-1155200Y-397000D03*
X-1155200Y-422400D03*
X-1155200Y-447800D03*
D11*
X-1155200Y-473200D03*
X-1155200Y-498600D03*
X-1155200Y-524000D03*
X-1155200Y-549400D03*
X-1155200Y-574800D03*
X-1155200Y-600200D03*
X-1155200Y-625600D03*
X-1155200Y-651000D03*
X-1155200Y-676400D03*
X-1155200Y-701800D03*
X-1155200Y-727200D03*
D10*
X-1129800Y-270000D03*
X-1129800Y-295400D03*
X-1129800Y-320800D03*
X-1129800Y-346200D03*
X-1129800Y-371600D03*
X-1129800Y-397000D03*
X-1129800Y-422400D03*
X-1129800Y-447800D03*
X-1129800Y-473200D03*
X-1129800Y-498600D03*
X-1129800Y-524000D03*
X-1129800Y-549400D03*
X-1129800Y-574800D03*
X-1129800Y-600200D03*
X-1129800Y-625600D03*
X-1129800Y-651000D03*
X-1129800Y-676400D03*
X-1129800Y-701800D03*
D11*
X-1129800Y-727200D03*
D10*
X-1104400Y-270000D03*
X-1104400Y-295400D03*
X-1104400Y-320800D03*
X-1104400Y-346200D03*
X-1104400Y-371600D03*
X-1104400Y-397000D03*
D11*
X-1104400Y-422400D03*
D10*
X-1104400Y-447800D03*
X-1104400Y-473200D03*
X-1104400Y-498600D03*
X-1104400Y-524000D03*
X-1104400Y-549400D03*
X-1104400Y-574800D03*
X-1104400Y-600200D03*
X-1104400Y-625600D03*
X-1104400Y-651000D03*
X-1104400Y-676400D03*
X-1104400Y-701800D03*
X-1104400Y-727200D03*
D12*
X-799600Y-727200D03*
X-799600Y-701800D03*
X-799600Y-676400D03*
X-799600Y-651000D03*
X-799600Y-625600D03*
X-799600Y-600200D03*
X-799600Y-574800D03*
X-799600Y-549400D03*
X-799600Y-524000D03*
X-799600Y-498600D03*
X-799600Y-473200D03*
X-799600Y-447800D03*
X-799600Y-422400D03*
X-799600Y-397000D03*
X-799600Y-371600D03*
X-799600Y-346200D03*
X-799600Y-320800D03*
X-799600Y-295400D03*
X-799600Y-270000D03*
D13*
X-825000Y-727200D03*
D12*
X-825000Y-701800D03*
X-825000Y-676400D03*
X-825000Y-651000D03*
X-825000Y-625600D03*
X-825000Y-600200D03*
X-825000Y-574800D03*
X-825000Y-549400D03*
X-825000Y-524000D03*
X-825000Y-498600D03*
X-825000Y-473200D03*
X-825000Y-447800D03*
X-825000Y-422400D03*
X-825000Y-397000D03*
X-825000Y-371600D03*
X-825000Y-346200D03*
X-825000Y-320800D03*
D11*
X-825000Y-295400D03*
X-825000Y-270000D03*
D12*
X-850400Y-727200D03*
X-850400Y-701800D03*
X-850400Y-676400D03*
X-850400Y-651000D03*
X-850400Y-625600D03*
X-850400Y-600200D03*
X-850400Y-574800D03*
X-850400Y-549400D03*
X-850400Y-524000D03*
X-850400Y-498600D03*
X-850400Y-473200D03*
X-850400Y-447800D03*
X-850400Y-422400D03*
X-850400Y-397000D03*
X-850400Y-371600D03*
X-850400Y-346200D03*
D11*
X-850400Y-320800D03*
X-850400Y-295400D03*
X-850400Y-270000D03*
D14*
X-888500Y-917700D02*
X-888500Y-943100D01*
X-786900Y-790700D02*
X-786900Y-765300D01*
X-888500Y-765300D02*
X-888500Y-790700D01*
X-786900Y-917700D02*
X-786900Y-943100D01*
D15*
X-1256800Y-946402D02*
X-1256800Y-965198D01*
X-1282200Y-965198D02*
X-1282200Y-946402D01*
X-1307600Y-946402D02*
X-1307600Y-965198D01*
X-1333000Y-965198D02*
X-1333000Y-946402D01*
X-1358400Y-946402D02*
X-1358400Y-965198D01*
X-1383800Y-965198D02*
X-1383800Y-946402D01*
D16*
X-1460400Y-917700D03*
X-1510400Y-917700D03*
D17*
X-1430400Y-967700D03*
X-1540400Y-967700D03*
D16*
X-952400Y-917700D03*
X-1002400Y-917700D03*
D17*
X-922400Y-967700D03*
X-1032400Y-967700D03*
D18*
X-1599700Y-963420D02*
X-1599700Y-948180D01*
X-1574300Y-948180D02*
X-1574300Y-963420D01*
D19*
X-945904Y-778000D02*
X-932696Y-778000D01*
X-1008896Y-778000D02*
X-1022104Y-778000D01*
D20*
X-723400Y-549400D03*
X-723400Y-524000D03*
X-723400Y-498600D03*
X-723400Y-473200D03*
X-723400Y-447800D03*
X-723400Y-422400D03*
X-723400Y-397000D03*
X-723400Y-371600D03*
X-723400Y-346200D03*
X-723400Y-320800D03*
X-723400Y-295400D03*
X-723400Y-270000D03*
D15*
X-714002Y-917700D02*
X-732798Y-917700D01*
X-732798Y-892300D02*
X-714002Y-892300D01*
X-714002Y-866900D02*
X-732798Y-866900D01*
X-732798Y-841500D02*
X-714002Y-841500D01*
X-714002Y-816100D02*
X-732798Y-816100D01*
X-732798Y-790700D02*
X-714002Y-790700D01*
D20*
X-672600Y-549400D03*
X-672600Y-524000D03*
X-672600Y-498600D03*
X-672600Y-473200D03*
X-672600Y-447800D03*
X-672600Y-422400D03*
X-672600Y-397000D03*
X-672600Y-371600D03*
X-672600Y-346200D03*
X-672600Y-320800D03*
X-672600Y-295400D03*
X-672600Y-270000D03*
D15*
X-663202Y-917700D02*
X-681998Y-917700D01*
X-681998Y-892300D02*
X-663202Y-892300D01*
X-663202Y-866900D02*
X-681998Y-866900D01*
X-681998Y-841500D02*
X-663202Y-841500D01*
X-663202Y-816100D02*
X-681998Y-816100D01*
X-681998Y-790700D02*
X-663202Y-790700D01*
D21*
X2007100Y-422400D03*
D22*
X2007100Y-397000D03*
X2007100Y-346200D03*
X2007100Y-295400D03*
D14*
X1613400Y-727200D02*
X1588000Y-727200D01*
X2045200Y-955800D02*
X2070600Y-955800D01*
X2070600Y-727200D02*
X2045200Y-727200D01*
X1613400Y-955800D02*
X1588000Y-955800D01*
D21*
X1930900Y-511300D03*
D22*
X1930900Y-536700D03*
X1930900Y-587500D03*
X1930900Y-638300D03*
D21*
X1778500Y-422400D03*
D22*
X1778500Y-397000D03*
X1778500Y-346200D03*
X1778500Y-295400D03*
D21*
X1778500Y-663700D03*
D22*
X1778500Y-638300D03*
X1778500Y-587500D03*
X1778500Y-536700D03*
D21*
X1588000Y-308100D03*
D22*
X1562600Y-308100D03*
X1511800Y-308100D03*
X1461000Y-308100D03*
D21*
X1588000Y-549400D03*
D22*
X1562600Y-549400D03*
X1511800Y-549400D03*
X1461000Y-549400D03*
D21*
X1930900Y-270000D03*
D22*
X1930900Y-295400D03*
X1930900Y-346200D03*
X1930900Y-397000D03*
D21*
X2007100Y-663700D03*
D22*
X2007100Y-638300D03*
X2007100Y-587500D03*
X2007100Y-536700D03*
D21*
X1702300Y-270000D03*
D22*
X1702300Y-295400D03*
X1702300Y-346200D03*
X1702300Y-397000D03*
D21*
X1702300Y-511300D03*
D22*
X1702300Y-536700D03*
X1702300Y-587500D03*
X1702300Y-638300D03*
D21*
X1435600Y-384300D03*
D22*
X1461000Y-384300D03*
X1511800Y-384300D03*
X1562600Y-384300D03*
D21*
X1435600Y-625600D03*
D22*
X1461000Y-625600D03*
X1511800Y-625600D03*
X1562600Y-625600D03*
D23*
X-1256800Y-879600D02*
X-1256800Y-955800D01*
X-1256800Y-879600D02*
X-1333000Y-803400D01*
D24*
X-1333000Y-803400D03*
D25*
X-1256800Y-765300D03*
D26*
X-1282200Y-765300D01*
X-1307600Y-765300D01*
D27*
X-837700Y-930400D02*
X-786900Y-930400D01*
X-837700Y-930400D02*
X-875800Y-892300D01*
X-1028200Y-892300D01*
D28*
X-1028200Y-892300D03*
X-1028200Y-943100D03*
D27*
X-1226440Y-943100D01*
X-1231400Y-938140D01*
D28*
X-1231400Y-938140D03*
D25*
X-1307600Y-765300D03*
X-1282200Y-765300D03*
X-1218700Y-460500D03*
D27*
X-875800Y-435100D02*
X-863100Y-422400D01*
X-875800Y-435100D02*
X-875800Y-460500D01*
D28*
X-875800Y-460500D03*
D27*
X-863100Y-422400D02*
X-850400Y-422400D01*
X-863100Y-422400D02*
X-875800Y-409700D01*
X-875800Y-282700D01*
X-863100Y-270000D01*
X-850400Y-270000D01*
D25*
X-1040900Y-435100D03*
X-1028200Y-422400D03*
X-888500Y-422400D03*
X-888500Y-435100D03*
D26*
X-913900Y-422400D02*
X-1028200Y-422400D01*
D25*
X-913900Y-422400D03*
D26*
X-913900Y-435100D02*
X-1040900Y-435100D01*
D25*
X-913900Y-435100D03*
D23*
X-1218700Y-803400D02*
X-1333000Y-803400D01*
X-1218700Y-803400D02*
X-1193300Y-828800D01*
X-1066300Y-828800D01*
X-1028200Y-866900D01*
X-926600Y-866900D01*
D24*
X-926600Y-866900D03*
X-837700Y-968500D03*
D23*
X-761500Y-968500D01*
X-748800Y-955800D01*
X-748800Y-930400D01*
X-736100Y-917700D01*
X-723400Y-917700D01*
X1588000Y-979295D02*
X1600700Y-966595D01*
X1600700Y-955800D01*
D25*
X-609100Y-917700D03*
D23*
X-380500Y-689100D01*
X660900Y-689100D01*
X686300Y-638300D02*
X1130800Y-638300D01*
X673600Y-676400D02*
X660900Y-689100D01*
X673600Y-676400D02*
X673600Y-651000D01*
X686300Y-638300D01*
D25*
X1130800Y-765300D03*
D26*
X1105400Y-765300D01*
D25*
X1105400Y-765300D03*
X1003800Y-739900D03*
X813300Y-765300D03*
D26*
X838700Y-765300D01*
D25*
X838700Y-765300D03*
X711700Y-739900D03*
X508500Y-765300D03*
D26*
X533900Y-765300D01*
D25*
X533900Y-765300D03*
X419600Y-739900D03*
X127500Y-739900D03*
X216400Y-765300D03*
D26*
X241800Y-765300D01*
D25*
X241800Y-765300D03*
X-164600Y-739900D03*
X-75700Y-765300D03*
D26*
X-50300Y-765300D01*
D25*
X-50300Y-765300D03*
X-1028200Y-727200D03*
D26*
X-799600Y-752600D02*
X-786900Y-739900D01*
X-863100Y-752600D02*
X-888500Y-727200D01*
X-863100Y-752600D02*
X-799600Y-752600D01*
X-888500Y-727200D02*
X-1028200Y-727200D01*
X-456700Y-612900D02*
X-393200Y-612900D01*
D25*
X-393200Y-612900D03*
X-380500Y-727200D03*
D26*
X-583700Y-739900D02*
X-786900Y-739900D01*
X-583700Y-739900D02*
X-456700Y-612900D01*
X-380500Y-727200D02*
X-380500Y-752600D01*
X-367800Y-765300D01*
X-342400Y-765300D01*
D25*
X-342400Y-765300D03*
X1321300Y-447800D03*
D26*
X1245100Y-447800D02*
X1232400Y-435100D01*
D25*
X1232400Y-435100D03*
X1207000Y-435100D03*
D26*
X1181600Y-435100D01*
D25*
X1181600Y-435100D03*
X1118100Y-435100D03*
D26*
X1080000Y-435100D01*
X1067300Y-447800D01*
D25*
X1067300Y-447800D03*
X1029200Y-447800D03*
D26*
X1245100Y-447800D02*
X1321300Y-447800D01*
D25*
X991100Y-447800D03*
X965700Y-447800D03*
D26*
X953000Y-447800D01*
X940300Y-435100D01*
D25*
X940300Y-435100D03*
X914900Y-435100D03*
D26*
X889500Y-435100D01*
D25*
X889500Y-435100D03*
X826000Y-435100D03*
D26*
X787900Y-435100D01*
X775200Y-447800D01*
D25*
X775200Y-447800D03*
D26*
X991100Y-447800D02*
X1029200Y-447800D01*
D25*
X737100Y-447800D03*
D26*
X699000Y-447800D01*
D25*
X699000Y-447800D03*
X673600Y-447800D03*
D26*
X660900Y-447800D01*
X648200Y-435100D01*
D25*
X648200Y-435100D03*
X622800Y-435100D03*
D26*
X597400Y-435100D01*
D25*
X597400Y-435100D03*
X533900Y-435100D03*
D26*
X495800Y-435100D01*
X483100Y-447800D01*
D25*
X483100Y-447800D03*
X445000Y-447800D03*
D26*
X406900Y-447800D01*
D25*
X406900Y-447800D03*
X381500Y-447800D03*
D26*
X368800Y-447800D01*
X356100Y-435100D01*
D25*
X356100Y-435100D03*
X330700Y-435100D03*
D26*
X305300Y-435100D01*
D25*
X305300Y-435100D03*
X241800Y-435100D03*
D26*
X203700Y-435100D01*
X191000Y-447800D01*
D25*
X191000Y-447800D03*
X152900Y-447800D03*
D26*
X76700Y-447800D02*
X64000Y-435100D01*
D25*
X64000Y-435100D03*
X38600Y-435100D03*
D26*
X13200Y-435100D01*
D25*
X13200Y-435100D03*
X-50300Y-435100D03*
D26*
X-88400Y-435100D01*
X-101100Y-447800D01*
D25*
X-101100Y-447800D03*
D26*
X76700Y-447800D02*
X152900Y-447800D01*
D25*
X-139200Y-447800D03*
D26*
X-177300Y-447800D01*
D25*
X-177300Y-447800D03*
X-202700Y-447800D03*
D26*
X-215400Y-447800D01*
X-228100Y-435100D01*
D25*
X-228100Y-435100D03*
X-253500Y-435100D03*
D26*
X-329700Y-435100D01*
X-367800Y-473200D01*
X-367800Y-524000D01*
D25*
X-367800Y-524000D03*
D23*
X1130800Y-638300D02*
X1143500Y-625600D01*
D29*
X1143500Y-625600D03*
D23*
X-611005Y-979295D02*
X-672600Y-917700D01*
X-611005Y-979295D02*
X1588000Y-979295D01*
D30*
X-752500Y-422500D03*
D26*
X-770000Y-422500D01*
D30*
X-770000Y-422500D03*
D25*
X-1548900Y-257300D03*
D28*
X-1231400Y-879600D03*
D27*
X-1193300Y-917700D02*
X-1002400Y-917700D01*
X-1193300Y-917700D02*
X-1231400Y-879600D01*
D23*
X-1460000Y-841500D02*
X-1460000Y-803400D01*
D24*
X-1460000Y-803400D03*
D23*
X-1383800Y-917700D02*
X-1383800Y-955800D01*
X-1383800Y-917700D02*
X-1460000Y-841500D01*
D28*
X-1445896Y-879600D03*
D27*
X-1498100Y-879600D01*
X-1510400Y-891900D01*
X-1510400Y-917700D01*
D23*
X-1485000Y-943100D01*
X-1396500Y-943100D02*
X-1383800Y-955800D01*
X-1396500Y-943100D02*
X-1485000Y-943100D01*
D25*
X-1498100Y-257300D03*
X-1307600Y-460500D03*
D26*
X-1498100Y-257300D02*
X-1548900Y-257300D01*
D23*
X-1460000Y-651000D02*
X-1460000Y-803400D01*
X-1460000Y-651000D02*
X-1447300Y-638300D01*
X-1383800Y-638300D01*
X-1371100Y-625600D01*
X-985276Y-236724D02*
X-977400Y-244600D01*
X-1371100Y-270000D02*
X-1371100Y-625600D01*
X-1371100Y-270000D02*
X-1337824Y-236724D01*
X-985276Y-236724D01*
X-977400Y-244600D02*
X-977400Y-308100D01*
D24*
X-977400Y-308100D03*
X-812300Y-816100D03*
D23*
X-774200Y-816100D01*
X-748800Y-790700D01*
X-723400Y-790700D01*
D31*
X-1548900Y-257300D02*
X-1587000Y-257300D01*
X-1599700Y-270000D01*
X-1599700Y-879600D01*
D25*
X-1599700Y-879600D03*
X-1548900Y-879600D03*
D31*
X-1548900Y-816100D01*
X-1536200Y-803400D01*
X-1460000Y-803400D01*
D23*
X1600700Y-727200D02*
X1600700Y-905000D01*
X-634500Y-917700D02*
X-634500Y-803400D01*
X-647200Y-790700D01*
X-672600Y-790700D01*
X-634500Y-917700D02*
X-586200Y-966000D01*
X1539700Y-966000D01*
X1600700Y-905000D01*
D25*
X-609100Y-790700D03*
D23*
X-444000Y-625600D01*
X-380500Y-625600D02*
X-355100Y-600200D01*
D25*
X-355100Y-600200D03*
D23*
X-380500Y-625600D02*
X-444000Y-625600D01*
D25*
X-1218700Y-485900D03*
D32*
X-1206000Y-473200D01*
X-1206000Y-282700D02*
X-1193300Y-270000D01*
X-1155200Y-270000D01*
X-1206000Y-282700D02*
X-1206000Y-473200D01*
D25*
X-952000Y-358900D03*
D30*
X-737500Y-672500D03*
D26*
X-737500Y-640000D01*
D30*
X-737500Y-640000D03*
X-742232Y-435000D03*
D26*
X-742232Y-380000D01*
D30*
X-742232Y-380000D03*
X-742500Y-307500D03*
D26*
X-742500Y-257500D01*
X-755000Y-245000D01*
X-940000Y-245000D01*
X-950000Y-255000D01*
X-950000Y-262500D01*
D30*
X-950000Y-262500D03*
D25*
X-1320300Y-587500D03*
D26*
X-1333000Y-574800D01*
X-1333000Y-384300D01*
X-1320300Y-371600D01*
X-1218700Y-371600D01*
D25*
X-1218700Y-371600D03*
X-1040900Y-358900D03*
D26*
X-1091700Y-397000D02*
X-1104400Y-397000D01*
X-1091700Y-397000D02*
X-1082048Y-406652D01*
X-1050552Y-406652D02*
X-1040900Y-397000D01*
X-1040900Y-358900D01*
X-1050552Y-406652D02*
X-1082048Y-406652D01*
D25*
X-761500Y-638300D03*
D26*
X-1040900Y-638300D01*
X-1053600Y-625600D01*
D25*
X-1053600Y-625600D03*
X-1040900Y-447800D03*
D26*
X-1053600Y-435100D01*
X-1091700Y-435100D01*
X-1104400Y-422400D01*
D25*
X742500Y-747500D03*
D26*
X747500Y-660000D02*
X742500Y-655000D01*
D25*
X742500Y-655000D03*
X742500Y-622032D03*
D26*
X742500Y-730000D02*
X742500Y-747500D01*
X742500Y-730000D02*
X747500Y-725000D01*
X747500Y-660000D01*
X742500Y-622032D02*
X677032Y-622032D01*
X675000Y-620000D01*
D25*
X675000Y-620000D03*
X600000Y-637500D03*
D26*
X577500Y-660000D01*
X415000Y-660000D02*
X412500Y-657500D01*
D25*
X412500Y-657500D03*
X412500Y-642500D03*
D26*
X397500Y-642500D01*
X415000Y-660000D02*
X577500Y-660000D01*
X372500Y-617500D02*
X367500Y-617500D01*
D25*
X367500Y-617500D03*
X345152Y-617652D03*
D26*
X342348Y-617652D01*
X372500Y-617500D02*
X397500Y-642500D01*
X342348Y-617652D02*
X325000Y-635000D01*
X100000Y-635000D01*
X82500Y-617500D02*
X77500Y-617500D01*
D25*
X77500Y-617500D03*
D26*
X82500Y-617500D02*
X100000Y-635000D01*
D25*
X52500Y-620000D03*
D26*
X35000Y-620000D01*
X30000Y-625000D01*
X-192500Y-625000D01*
X-202500Y-615000D02*
X-207500Y-615000D01*
D25*
X-207500Y-615000D03*
X-267500Y-619532D03*
D26*
X-274532Y-612500D01*
D25*
X-367500Y-590000D03*
X-387132Y-563932D03*
D26*
X-646068Y-563932D01*
X-650000Y-560000D01*
D25*
X-650000Y-560000D03*
D26*
X-202500Y-615000D02*
X-192500Y-625000D01*
X-274532Y-612500D02*
X-332500Y-612500D01*
X-352500Y-592500D01*
X-365000Y-590000D02*
X-367500Y-590000D01*
X-365000Y-590000D02*
X-362500Y-592500D01*
X-352500Y-592500D01*
D25*
X-748800Y-333500D03*
D26*
X-774200Y-333500D01*
D25*
X-774200Y-333500D03*
X-913900Y-333500D03*
D26*
X-1066300Y-333500D02*
X-1079000Y-346200D01*
X-1066300Y-333500D02*
X-913900Y-333500D01*
X-1079000Y-346200D02*
X-1079000Y-397000D01*
D25*
X-1079000Y-397000D03*
X425000Y-527500D03*
D26*
X375000Y-577500D01*
X365000Y-577500D01*
X355000Y-587500D01*
X198568Y-587500D01*
X197500Y-586432D01*
D25*
X197500Y-586432D03*
X185000Y-644932D03*
D26*
X120000Y-644932D01*
D25*
X120000Y-644932D03*
X117500Y-625000D03*
D26*
X97500Y-625000D01*
X82500Y-610000D01*
X82500Y-600000D01*
X75000Y-592500D01*
X57500Y-592500D02*
X52500Y-597500D01*
X52500Y-610000D01*
X50000Y-612500D01*
X37500Y-612500D02*
X30000Y-620000D01*
X-190000Y-620000D01*
X-205000Y-605000D02*
X-210000Y-605000D01*
X57500Y-592500D02*
X75000Y-592500D01*
X50000Y-612500D02*
X37500Y-612500D01*
X-190000Y-620000D02*
X-205000Y-605000D01*
X-210000Y-605000D02*
X-222500Y-592500D01*
X-247500Y-629450D02*
X-250000Y-631950D01*
X-363050Y-631950D02*
X-367500Y-627500D01*
D25*
X-367500Y-627500D03*
X-382500Y-612500D03*
D26*
X-390000Y-605000D01*
X-460000Y-605000D01*
X-462500Y-607500D01*
D25*
X-462500Y-607500D03*
X-462500Y-543932D03*
D26*
X-623568Y-543932D01*
X-640000Y-527500D02*
X-640000Y-405000D01*
X-648000Y-397000D02*
X-672600Y-397000D01*
X-242500Y-592500D02*
X-222500Y-592500D01*
X-242500Y-592500D02*
X-247500Y-597500D01*
X-247500Y-629450D01*
X-250000Y-631950D02*
X-363050Y-631950D01*
X-623568Y-543932D02*
X-640000Y-527500D01*
X-640000Y-405000D02*
X-648000Y-397000D01*
X-723400Y-498600D02*
X-736100Y-511300D01*
X-1040900Y-511300D01*
D25*
X-1040900Y-511300D03*
X-1040900Y-473200D03*
D26*
X-1104400Y-473200D01*
D25*
X1005000Y-537500D03*
D26*
X862500Y-537500D01*
X857500Y-542500D01*
X850000Y-542500D01*
X845000Y-537500D01*
D25*
X845000Y-537500D03*
X597500Y-542500D03*
D26*
X492500Y-542500D01*
X487500Y-537500D01*
D25*
X487500Y-537500D03*
X302500Y-573932D03*
D26*
X276432Y-573932D01*
X272500Y-570000D01*
D25*
X272500Y-570000D03*
X45000Y-570000D03*
D26*
X-20000Y-570000D01*
D25*
X-20000Y-570000D03*
X-237500Y-572500D03*
D26*
X-668900Y-498600D02*
X-672600Y-498600D01*
X-668900Y-498600D02*
X-657500Y-510000D01*
X-657500Y-565000D02*
X-650000Y-572500D01*
X-657500Y-565000D02*
X-657500Y-510000D01*
X-650000Y-572500D02*
X-237500Y-572500D01*
X-1091700Y-498600D02*
X-1104400Y-498600D01*
X-1091700Y-498600D02*
X-1079000Y-485900D01*
X-761500Y-485900D02*
X-748800Y-473200D01*
X-723400Y-473200D01*
X-761500Y-485900D02*
X-1079000Y-485900D01*
D25*
X1016500Y-752600D03*
D26*
X1016500Y-741000D01*
X1020000Y-737500D01*
X1040000Y-737500D02*
X1042500Y-735000D01*
X1042500Y-680000D01*
X1037500Y-675000D01*
D25*
X1037500Y-675000D03*
D26*
X1040000Y-737500D02*
X1020000Y-737500D01*
D25*
X630000Y-562500D03*
D26*
X577500Y-562500D02*
X572500Y-557500D01*
X577500Y-562500D02*
X630000Y-562500D01*
D25*
X572500Y-557500D03*
X337500Y-580000D03*
D26*
X272500Y-580000D01*
D25*
X272500Y-580000D03*
X45000Y-580000D03*
D26*
X-20000Y-580000D01*
D25*
X-20000Y-580000D03*
X-237500Y-582500D03*
D26*
X-652500Y-582500D01*
X-657500Y-577500D01*
D25*
X-657500Y-577500D03*
X-774200Y-549400D03*
X-774200Y-473200D03*
D26*
X-748800Y-447800D01*
X-723400Y-447800D01*
X-1079000Y-524000D02*
X-1104400Y-524000D01*
X-786900Y-562100D02*
X-774200Y-549400D01*
X-1040900Y-562100D02*
X-1079000Y-524000D01*
X-1040900Y-562100D02*
X-786900Y-562100D01*
D25*
X735000Y-532500D03*
D26*
X735000Y-565000D01*
X730000Y-570000D01*
X575038Y-570000D01*
X572500Y-567462D01*
D25*
X572500Y-567462D03*
X347500Y-580000D03*
D26*
X340000Y-572500D01*
X312500Y-572500D01*
X300000Y-560000D02*
X272500Y-560000D01*
D25*
X272500Y-560000D03*
D26*
X300000Y-560000D02*
X312500Y-572500D01*
D25*
X45000Y-560000D03*
D26*
X-20000Y-560000D01*
D25*
X-20000Y-560000D03*
X-237500Y-562500D03*
D26*
X-242500Y-557500D01*
X-382500Y-557500D01*
X-385000Y-555000D01*
X-640000Y-555000D02*
X-650000Y-545000D01*
X-650000Y-455000D01*
X-657500Y-447500D01*
X-672300Y-447500D02*
X-672600Y-447800D01*
X-640000Y-555000D02*
X-385000Y-555000D01*
X-657500Y-447500D02*
X-672300Y-447500D01*
X-1079000Y-549400D02*
X-1104400Y-549400D01*
X-1079000Y-549400D02*
X-1066300Y-562100D01*
X-1066300Y-574800D01*
X-1053600Y-587500D01*
X-774200Y-587500D02*
X-761500Y-574800D01*
X-761500Y-536700D01*
X-748800Y-524000D01*
X-723400Y-524000D01*
X-774200Y-587500D02*
X-1053600Y-587500D01*
D25*
X1156200Y-638300D03*
D26*
X1156200Y-625600D01*
X1148500Y-617900D01*
X1138300Y-617900D01*
X1125600Y-630600D01*
D25*
X673600Y-630600D03*
X610100Y-638300D03*
D26*
X584700Y-663700D01*
X381500Y-663700D01*
X368800Y-651000D01*
X368800Y-638300D01*
D25*
X368800Y-638300D03*
X343400Y-638300D03*
D26*
X330700Y-651000D01*
X89400Y-651000D01*
X76700Y-638300D01*
D25*
X76700Y-638300D03*
X38600Y-638300D03*
D26*
X-202700Y-638300D01*
X-215400Y-625600D01*
D25*
X-215400Y-625600D03*
X-258500Y-625600D03*
D26*
X-355100Y-625600D01*
D25*
X-355100Y-625600D03*
X-383000Y-600200D03*
D26*
X-685300Y-600200D01*
X-698000Y-587500D01*
X-698000Y-536700D01*
X-685300Y-524000D01*
X-672600Y-524000D01*
X673600Y-630600D02*
X1125600Y-630600D01*
X-748800Y-612900D02*
X-1091700Y-612900D01*
X-1104400Y-625600D01*
X-748800Y-612900D02*
X-723400Y-587500D01*
X-723400Y-549400D01*
D25*
X1181600Y-625600D03*
D26*
X1162550Y-644650D01*
X730750Y-644650D01*
X711700Y-663700D01*
D25*
X711700Y-663700D03*
X572000Y-651000D03*
D26*
X391700Y-651000D01*
X368800Y-628100D01*
D25*
X368800Y-628100D03*
X343400Y-628100D03*
D26*
X333200Y-638300D01*
X86900Y-638300D01*
X76700Y-628100D01*
D25*
X76700Y-628100D03*
X38600Y-628100D03*
X-202700Y-625600D03*
X-278900Y-619532D03*
D26*
X-202700Y-625600D02*
X-200200Y-628100D01*
X38600Y-628100D01*
X-278900Y-619532D02*
X-342400Y-619532D01*
D25*
X-342400Y-619532D03*
X-380500Y-590000D03*
D26*
X-657400Y-590000D01*
X-672600Y-574800D01*
X-672600Y-549400D01*
X-723400Y-320800D02*
X-748800Y-320800D01*
X-774200Y-295400D02*
X-799600Y-295400D01*
X-774200Y-295400D02*
X-748800Y-320800D01*
D25*
X130000Y-625000D03*
D26*
X92500Y-587500D01*
X57500Y-587500D01*
X35000Y-610000D01*
X-195000Y-610000D01*
X-215548Y-589452D01*
X-300410Y-589452D02*
X-301294Y-588568D01*
D25*
X-301294Y-588568D03*
D26*
X-300410Y-589452D02*
X-215548Y-589452D01*
D25*
X-305000Y-546432D03*
D26*
X-378568Y-546432D01*
X-622500Y-532500D02*
X-627500Y-527500D01*
D25*
X-627500Y-527500D03*
D26*
X-382500Y-542500D02*
X-378568Y-546432D01*
X-382500Y-542500D02*
X-452500Y-542500D01*
X-462500Y-532500D01*
X-622500Y-532500D01*
D25*
X-1294900Y-536700D03*
D26*
X-1294900Y-409700D01*
D25*
X-1294900Y-409700D03*
X-1193300Y-409700D03*
X-901200Y-320800D03*
D26*
X-1091700Y-409700D02*
X-1193300Y-409700D01*
X-1040900Y-409700D02*
X-939300Y-409700D01*
X-901200Y-371600D01*
X-901200Y-320800D01*
X-1082048Y-419352D02*
X-1091700Y-409700D01*
X-1050552Y-419352D02*
X-1040900Y-409700D01*
X-1050552Y-419352D02*
X-1082048Y-419352D01*
D25*
X-1294900Y-612900D03*
D26*
X-1269500Y-587500D01*
X-1066300Y-587500D02*
X-1053600Y-600200D01*
X-926600Y-600200D01*
X-1066300Y-587500D02*
X-1269500Y-587500D01*
D25*
X-926600Y-600200D03*
X-901200Y-397000D03*
X-901200Y-447800D03*
D26*
X-901200Y-397000D01*
X-799600Y-447800D02*
X-786900Y-447800D01*
X-784200Y-445100D01*
X-784200Y-353900D01*
X-776500Y-346200D01*
X-723400Y-346200D01*
D25*
X130000Y-537500D03*
D26*
X117500Y-550000D01*
X-377500Y-535000D02*
X-382500Y-530000D01*
X-450000Y-530000D01*
X-627500Y-507500D02*
X-627500Y-357500D01*
X-638800Y-346200D01*
X-672600Y-346200D01*
X-222500Y-550000D02*
X117500Y-550000D01*
X-222500Y-550000D02*
X-237500Y-535000D01*
X-377500Y-535000D01*
X-450000Y-530000D02*
X-460000Y-520000D01*
X-615000Y-520000D01*
X-627500Y-507500D01*
X-786900Y-473200D02*
X-799600Y-473200D01*
X-786900Y-473200D02*
X-779000Y-465300D01*
X-779000Y-376800D01*
X-773800Y-371600D02*
X-723400Y-371600D01*
X-773800Y-371600D02*
X-779000Y-376800D01*
D25*
X370000Y-592500D03*
D26*
X177500Y-592500D02*
X175000Y-590000D01*
X175000Y-580000D01*
X167500Y-572500D01*
X-115000Y-587500D02*
X-117500Y-585000D01*
X177500Y-592500D02*
X370000Y-592500D01*
X167500Y-572500D02*
X62500Y-572500D01*
X47500Y-587500D01*
X-115000Y-587500D01*
X-117500Y-585000D02*
X-117500Y-580000D01*
X-125000Y-572500D01*
X-217500Y-572500D01*
X-227500Y-562500D01*
X-227500Y-557500D01*
X-232500Y-552500D01*
X-380000Y-552500D02*
X-382500Y-550000D01*
X-635000Y-550000D02*
X-640000Y-545000D01*
D25*
X-640000Y-545000D03*
D26*
X-380000Y-552500D02*
X-232500Y-552500D01*
X-382500Y-550000D02*
X-635000Y-550000D01*
D25*
X-1066300Y-498600D03*
D26*
X-850400Y-498600D01*
D30*
X-100000Y-272500D03*
D26*
X-135000Y-272500D01*
X-220000Y-282500D02*
X-235000Y-267500D01*
X-145000Y-282500D02*
X-135000Y-272500D01*
X-145000Y-282500D02*
X-220000Y-282500D01*
X-612500Y-267500D02*
X-617500Y-272500D01*
X-625400Y-295400D02*
X-672600Y-295400D01*
X-617500Y-287500D02*
X-617500Y-272500D01*
X-617500Y-287500D02*
X-625400Y-295400D01*
X-612500Y-267500D02*
X-235000Y-267500D01*
X-710700Y-282700D02*
X-723400Y-270000D01*
X-710700Y-587500D02*
X-748800Y-625600D01*
X-799600Y-625600D01*
X-710700Y-587500D02*
X-710700Y-282700D01*
D30*
X-97500Y-927500D03*
D26*
X-410000Y-927500D02*
X-417500Y-920000D01*
X-417500Y-790000D01*
D30*
X-417500Y-790000D03*
X-417500Y-520000D03*
D26*
X-447500Y-520000D02*
X-455000Y-512500D01*
X-607500Y-512500D02*
X-617500Y-502500D01*
D30*
X-617500Y-502500D03*
D26*
X-410000Y-927500D02*
X-97500Y-927500D01*
X-417500Y-520000D02*
X-447500Y-520000D01*
X-455000Y-512500D02*
X-607500Y-512500D01*
D25*
X-1333000Y-727200D03*
D26*
X-888500Y-714500D02*
X-875800Y-701800D01*
X-875800Y-663700D01*
X-863100Y-651000D01*
X-850400Y-651000D01*
X-888500Y-714500D02*
X-1079000Y-714500D01*
D33*
X-1079000Y-714500D03*
X-1193300Y-714500D03*
D26*
X-1231400Y-714500D01*
D33*
X-1231400Y-714500D03*
X-1320300Y-689100D03*
D26*
X-1333000Y-701800D02*
X-1333000Y-727200D01*
X-1333000Y-701800D02*
X-1320300Y-689100D01*
D25*
X-1498100Y-333500D03*
D26*
X-1498100Y-308100D01*
X-1485400Y-295400D01*
X-1434600Y-295400D01*
D25*
X-1434600Y-295400D03*
X-1498100Y-460500D03*
D26*
X-1498100Y-397000D01*
X-1485400Y-384300D01*
X-1434600Y-384300D01*
D25*
X-1434600Y-384300D03*
X-1498100Y-587500D03*
D26*
X-1498100Y-485900D01*
X-1485400Y-473200D01*
X-1434600Y-473200D01*
D25*
X-1434600Y-473200D03*
X-1498100Y-714500D03*
D26*
X-1498100Y-625600D01*
X-1485400Y-612900D01*
X-1409200Y-612900D01*
D25*
X-1409200Y-612900D03*
X-1294900Y-549400D03*
X-1307600Y-384300D03*
D26*
X-1307600Y-549400D02*
X-1294900Y-549400D01*
X-1307600Y-549400D02*
X-1320300Y-536700D01*
X-1320300Y-397000D01*
X-1307600Y-384300D01*
D25*
X-1269500Y-536700D03*
D26*
X-1282200Y-524000D01*
X-1282200Y-384300D01*
D25*
X-1282200Y-384300D03*
X-1548900Y-384300D03*
D23*
X-1434600Y-803400D02*
X-1434600Y-828800D01*
X-1358400Y-905000D02*
X-1358400Y-955800D01*
X-1358400Y-905000D02*
X-1434600Y-828800D01*
D24*
X-1434600Y-803400D03*
D23*
X-1434600Y-676400D01*
X-1421900Y-663700D01*
X-1371100Y-663700D01*
X-1345700Y-638300D01*
X-1345700Y-295400D01*
X-1307600Y-257300D01*
X-1269500Y-257300D01*
D24*
X-1269500Y-257300D03*
X-1002800Y-257300D03*
D23*
X-1002800Y-308100D01*
D24*
X-1002800Y-308100D03*
X-812300Y-841500D03*
D23*
X-774200Y-841500D01*
X-748800Y-816100D01*
X-723400Y-816100D01*
D25*
X-1485400Y-790700D03*
D31*
X-1536200Y-384300D02*
X-1548900Y-384300D01*
X-1536200Y-384300D02*
X-1523500Y-397000D01*
X-1523500Y-778000D02*
X-1510800Y-790700D01*
X-1485400Y-790700D01*
X-1523500Y-778000D02*
X-1523500Y-397000D01*
D25*
X-609100Y-816100D03*
D23*
X-431300Y-638300D01*
X-240800Y-638300D02*
X-228100Y-625600D01*
X-228100Y-600200D01*
D25*
X-228100Y-600200D03*
D23*
X-240800Y-638300D02*
X-431300Y-638300D01*
D25*
X-1548900Y-511300D03*
D23*
X-1409200Y-803400D02*
X-1409200Y-816100D01*
X-1333000Y-892300D02*
X-1333000Y-955800D01*
X-1333000Y-892300D02*
X-1409200Y-816100D01*
D24*
X-1409200Y-803400D03*
D23*
X-1409200Y-701800D02*
X-1396500Y-689100D01*
X-1409200Y-701800D02*
X-1409200Y-803400D01*
X-1371100Y-689100D02*
X-1320300Y-638300D01*
X-1371100Y-689100D02*
X-1396500Y-689100D01*
X-926600Y-752600D02*
X-913900Y-765300D01*
X-913900Y-803400D01*
X-901200Y-816100D01*
X-850400Y-816100D01*
X-837700Y-828800D01*
X-837700Y-854200D02*
X-825000Y-866900D01*
X-812300Y-866900D01*
X-837700Y-854200D02*
X-837700Y-828800D01*
D24*
X-812300Y-866900D03*
D23*
X-1193300Y-638300D02*
X-1320300Y-638300D01*
X-1193300Y-638300D02*
X-1180600Y-651000D01*
X-1180600Y-739900D02*
X-1167900Y-752600D01*
X-1180600Y-739900D02*
X-1180600Y-651000D01*
X-1167900Y-752600D02*
X-926600Y-752600D01*
X-812300Y-866900D02*
X-774200Y-866900D01*
X-748800Y-841500D01*
X-723400Y-841500D01*
D25*
X-1447300Y-968500D03*
D31*
X-1485400Y-968500D01*
X-1498100Y-981200D01*
X-1548900Y-981200D01*
X-1561600Y-968500D01*
X-1587000Y-765300D02*
X-1561600Y-739900D01*
X-1561600Y-524000D02*
X-1548900Y-511300D01*
X-1561600Y-524000D02*
X-1561600Y-739900D01*
X-1561600Y-943100D02*
X-1561600Y-968500D01*
X-1561600Y-943100D02*
X-1587000Y-917700D01*
X-1587000Y-765300D01*
D25*
X-609100Y-841500D03*
D23*
X-418600Y-651000D01*
X51300Y-651000D01*
X64000Y-638300D01*
X64000Y-600200D01*
D25*
X64000Y-600200D03*
X-1548900Y-638300D03*
D23*
X-1307600Y-892300D02*
X-1307600Y-955800D01*
X-1307600Y-892300D02*
X-1383800Y-816100D01*
X-1383800Y-803400D01*
D24*
X-1383800Y-803400D03*
D23*
X-1383800Y-727200D01*
X-1320300Y-663700D01*
X-1256800Y-663700D01*
X-1244100Y-676400D01*
X-1244100Y-727200D01*
X-1206000Y-765300D01*
X-939300Y-803400D02*
X-913900Y-828800D01*
X-863100Y-828800D01*
X-850400Y-841500D01*
X-850400Y-866900D01*
X-825000Y-892300D01*
X-1066300Y-765300D02*
X-1206000Y-765300D01*
X-1066300Y-765300D02*
X-1028200Y-803400D01*
X-939300Y-803400D01*
X-774200Y-892300D02*
X-748800Y-866900D01*
X-723400Y-866900D01*
X-774200Y-892300D02*
X-825000Y-892300D01*
D33*
X-1510800Y-968500D03*
D31*
X-1574300Y-905000D01*
X-1574300Y-765300D02*
X-1548900Y-739900D01*
X-1548900Y-638300D01*
X-1574300Y-765300D02*
X-1574300Y-905000D01*
D25*
X-609100Y-866900D03*
D23*
X-405900Y-663700D01*
X343400Y-663700D02*
X356100Y-651000D01*
X356100Y-600200D01*
D25*
X356100Y-600200D03*
D23*
X343400Y-663700D02*
X-405900Y-663700D01*
D25*
X-1548900Y-765300D03*
D23*
X-1358400Y-803400D02*
X-1358400Y-816100D01*
X-1282200Y-892300D02*
X-1282200Y-955800D01*
X-1282200Y-892300D02*
X-1358400Y-816100D01*
D24*
X-1358400Y-803400D03*
D23*
X-1358400Y-790700D01*
X-1345700Y-778000D01*
X-1218700Y-778000D02*
X-1206000Y-790700D01*
X-1079000Y-790700D02*
X-1053600Y-816100D01*
X-1218700Y-778000D02*
X-1345700Y-778000D01*
X-1206000Y-790700D02*
X-1079000Y-790700D01*
X-952000Y-816100D02*
X-926600Y-841500D01*
X-888500Y-841500D01*
X-875800Y-854200D01*
X-952000Y-816100D02*
X-1053600Y-816100D01*
X-875800Y-854200D02*
X-875800Y-866900D01*
X-837700Y-905000D01*
D24*
X-837700Y-905000D03*
D31*
X-1282200Y-955800D02*
X-1282200Y-968500D01*
X-1294900Y-981200D01*
X-1396500Y-981200D01*
X-1510800Y-955800D02*
X-1561600Y-905000D01*
X-1561600Y-778000D02*
X-1548900Y-765300D01*
X-1561600Y-778000D02*
X-1561600Y-905000D01*
X-1421900Y-955800D02*
X-1396500Y-981200D01*
X-1421900Y-955800D02*
X-1510800Y-955800D01*
D25*
X-609100Y-892300D03*
D23*
X660900Y-651000D02*
X660900Y-600200D01*
D25*
X660900Y-600200D03*
D23*
X-393200Y-676400D02*
X-609100Y-892300D01*
X-393200Y-676400D02*
X635500Y-676400D01*
X660900Y-651000D01*
D25*
X-1129800Y-803400D03*
X-164600Y-879600D03*
X-190000Y-879600D03*
D31*
X-164600Y-879600D01*
D33*
X-88400Y-943100D03*
D31*
X89400Y-943100D01*
X102100Y-955800D01*
X203700Y-955800D01*
X216400Y-943100D01*
X356100Y-943100D01*
X368800Y-955800D01*
X495800Y-955800D01*
X508500Y-943100D01*
X635500Y-943100D01*
X648200Y-955800D01*
X787900Y-955800D01*
X800600Y-943100D01*
X927600Y-943100D01*
X940300Y-955800D01*
X1080000Y-955800D01*
X1092700Y-943100D01*
X1219700Y-943100D01*
X1232400Y-955800D01*
X1524500Y-955800D01*
X1537200Y-943100D01*
D33*
X1537200Y-943100D03*
X1638800Y-930400D03*
D31*
X1638800Y-968500D01*
X1651500Y-981200D01*
X2078808Y-981200D02*
X2091508Y-968500D01*
X2121400Y-371600D02*
X2108700Y-358900D01*
X1994400Y-358900D02*
X1981700Y-346200D01*
X1981700Y-308100D02*
X1994400Y-295400D01*
X2007100Y-295400D01*
X2078808Y-981200D02*
X1651500Y-981200D01*
X2091508Y-968500D02*
X2091508Y-795192D01*
X2121400Y-765300D01*
X2121400Y-371600D01*
X2108700Y-358900D02*
X1994400Y-358900D01*
X1981700Y-346200D02*
X1981700Y-308100D01*
D29*
X-240800Y-917700D03*
X-240800Y-714500D03*
D23*
X-240800Y-917700D01*
D33*
X-139200Y-714500D03*
D31*
X-240800Y-714500D01*
D33*
X-266200Y-841500D03*
D31*
X-253500Y-854200D01*
X-253500Y-905000D01*
X-240800Y-917700D01*
D33*
X-63000Y-955800D03*
D31*
X76700Y-955800D01*
D33*
X76700Y-955800D03*
X229100Y-955800D03*
D31*
X343400Y-955800D01*
D33*
X343400Y-955800D03*
X521200Y-955800D03*
D31*
X622800Y-955800D01*
D33*
X622800Y-955800D03*
X813300Y-955800D03*
D31*
X914900Y-955800D01*
D33*
X914900Y-955800D03*
X1105400Y-955800D03*
D31*
X1207000Y-955800D01*
D33*
X1207000Y-955800D03*
X2119527Y-346200D03*
D31*
X2007100Y-346200D01*
D33*
X-202700Y-701800D03*
D31*
X-342400Y-701800D01*
X-355100Y-714500D01*
D33*
X-355100Y-714500D03*
D25*
X102100Y-879600D03*
X127500Y-879600D03*
D31*
X102100Y-879600D01*
D33*
X168100Y-943100D03*
D31*
X203700Y-943100D01*
X216400Y-930400D01*
X356100Y-930400D01*
X368800Y-943100D01*
X495800Y-943100D01*
X508500Y-930400D01*
X635500Y-930400D01*
X648200Y-943100D01*
X787900Y-943100D01*
X800600Y-930400D01*
X927600Y-930400D01*
X940300Y-943100D01*
X1080000Y-943100D01*
X1092700Y-930400D01*
X1219700Y-930400D01*
X1232400Y-943100D01*
X1511800Y-943100D01*
X1524500Y-930400D01*
X1549900Y-930400D01*
X1575300Y-905000D01*
D33*
X1575300Y-905000D03*
X1930900Y-790700D03*
D31*
X1930900Y-739900D01*
D33*
X1930900Y-739900D03*
D29*
X51300Y-917700D03*
X51300Y-714500D03*
D23*
X51300Y-917700D01*
D33*
X152900Y-714500D03*
D31*
X51300Y-714500D01*
D33*
X25900Y-841500D03*
D31*
X38600Y-854200D01*
X38600Y-905000D01*
X51300Y-917700D01*
D25*
X140200Y-930400D03*
D31*
X203700Y-930400D01*
X216400Y-917700D01*
X292600Y-917700D01*
X305300Y-905000D01*
X330700Y-803400D02*
X330700Y-778000D01*
D25*
X330700Y-778000D03*
D31*
X305300Y-828800D02*
X305300Y-905000D01*
X305300Y-828800D02*
X330700Y-803400D01*
D25*
X356100Y-778000D03*
D31*
X356100Y-917700D02*
X368800Y-930400D01*
X495800Y-930400D02*
X508500Y-917700D01*
X584700Y-917700D01*
X597400Y-905000D01*
X622800Y-803400D02*
X622800Y-778000D01*
D25*
X622800Y-778000D03*
D31*
X356100Y-778000D02*
X356100Y-917700D01*
X368800Y-930400D02*
X495800Y-930400D01*
X597400Y-905000D02*
X597400Y-828800D01*
X622800Y-803400D01*
D25*
X648200Y-778000D03*
D31*
X648200Y-917700D01*
X660900Y-930400D01*
X787900Y-930400D01*
X800600Y-917700D01*
X876800Y-917700D01*
X889500Y-905000D01*
X914900Y-803400D02*
X914900Y-778000D01*
D25*
X914900Y-778000D03*
D31*
X889500Y-828800D02*
X889500Y-905000D01*
X889500Y-828800D02*
X914900Y-803400D01*
D25*
X940300Y-778000D03*
D31*
X940300Y-917700D01*
X953000Y-930400D01*
X1080000Y-930400D01*
X1092700Y-917700D01*
X1168900Y-917700D01*
X1181600Y-905000D01*
X1207000Y-803400D02*
X1207000Y-778000D01*
D25*
X1207000Y-778000D03*
D31*
X1181600Y-828800D02*
X1181600Y-905000D01*
X1181600Y-828800D02*
X1207000Y-803400D01*
D25*
X1232400Y-778000D03*
D31*
X1232400Y-917700D01*
X1245100Y-930400D01*
X1372100Y-930400D01*
D25*
X1575300Y-892300D03*
X1918200Y-790700D03*
D31*
X1918200Y-739900D01*
D25*
X1918200Y-739900D03*
X1918200Y-625600D03*
D31*
X1918200Y-600200D01*
X1930900Y-587500D01*
D25*
X1372100Y-930400D03*
D33*
X89400Y-701800D03*
D31*
X-50300Y-701800D01*
X-63000Y-714500D01*
D33*
X-63000Y-714500D03*
D25*
X394200Y-879600D03*
X419600Y-879600D03*
D31*
X394200Y-879600D01*
D25*
X445000Y-879600D03*
D31*
X470400Y-905000D01*
X572000Y-905000D01*
X584700Y-892300D01*
X584700Y-828800D01*
X610100Y-803400D01*
X610100Y-778000D01*
X622800Y-765300D01*
D25*
X622800Y-765300D03*
X648200Y-765300D03*
D31*
X660900Y-778000D01*
X660900Y-905000D01*
X673600Y-917700D01*
X787900Y-917700D01*
X800600Y-905000D01*
X864100Y-905000D01*
X876800Y-892300D01*
X876800Y-828800D01*
X902200Y-803400D01*
X902200Y-778000D01*
X914900Y-765300D01*
D25*
X914900Y-765300D03*
X940300Y-765300D03*
D31*
X953000Y-778000D01*
X953000Y-905000D01*
X965700Y-917700D01*
X1080000Y-917700D01*
X1092700Y-905000D01*
X1156200Y-905000D01*
X1168900Y-892300D01*
X1168900Y-828800D01*
X1194300Y-803400D01*
X1194300Y-778000D01*
X1207000Y-765300D01*
D25*
X1207000Y-765300D03*
X1232400Y-765300D03*
D31*
X1245100Y-778000D01*
X1245100Y-905000D01*
X1257800Y-917700D01*
X1384800Y-917700D01*
X1397500Y-930400D01*
X1511800Y-930400D01*
D25*
X1588000Y-879600D03*
X1867400Y-739900D03*
D31*
X1867400Y-714500D01*
D25*
X1867400Y-714500D03*
X1867400Y-574800D03*
X1867400Y-524000D03*
X1842000Y-371600D03*
D31*
X1816600Y-346200D01*
X1816600Y-308100D02*
X1803900Y-295400D01*
X1778500Y-295400D01*
X1562600Y-879600D02*
X1511800Y-930400D01*
X1562600Y-879600D02*
X1588000Y-879600D01*
X1867400Y-574800D02*
X1867400Y-524000D01*
X1816600Y-346200D02*
X1816600Y-308100D01*
D29*
X343400Y-917700D03*
X343400Y-714500D03*
D23*
X343400Y-917700D01*
D33*
X445000Y-714500D03*
D31*
X343400Y-714500D01*
D33*
X318000Y-841500D03*
D31*
X330700Y-854200D01*
X330700Y-905000D01*
X343400Y-917700D01*
D25*
X432300Y-917700D03*
D31*
X495800Y-917700D01*
D25*
X495800Y-917700D03*
X495800Y-892300D03*
D31*
X559300Y-892300D01*
X572000Y-879600D01*
X572000Y-828800D01*
X597400Y-803400D01*
X597400Y-778000D01*
X622800Y-752600D01*
D25*
X622800Y-752600D03*
X648200Y-752600D03*
D31*
X673600Y-778000D01*
X673600Y-892300D02*
X686300Y-905000D01*
X787900Y-905000D02*
X800600Y-892300D01*
X851400Y-892300D01*
X864100Y-879600D01*
X864100Y-828800D01*
X889500Y-803400D01*
X889500Y-778000D01*
X914900Y-752600D01*
D25*
X914900Y-752600D03*
D31*
X673600Y-778000D02*
X673600Y-892300D01*
X686300Y-905000D02*
X787900Y-905000D01*
D25*
X940300Y-752600D03*
D31*
X965700Y-778000D01*
X965700Y-892300D02*
X978400Y-905000D01*
X1080000Y-905000D01*
X1092700Y-892300D01*
X1143500Y-892300D01*
X1156200Y-879600D01*
X1156200Y-828800D01*
X1181600Y-803400D01*
X1181600Y-778000D01*
X1207000Y-752600D01*
D25*
X1207000Y-752600D03*
D31*
X965700Y-778000D02*
X965700Y-892300D01*
D25*
X1232400Y-752600D03*
D31*
X1257800Y-778000D01*
X1257800Y-892300D01*
X1270500Y-905000D01*
X1372100Y-905000D01*
D25*
X1372100Y-905000D03*
X1613400Y-866900D03*
D31*
X1626100Y-879600D01*
X1854700Y-879600D01*
X1867400Y-866900D01*
X1867400Y-765300D01*
X1854700Y-752600D01*
X1854700Y-701800D01*
X1867400Y-689100D01*
X1867400Y-600200D01*
X1854700Y-587500D01*
X1854700Y-511300D01*
X1867400Y-498600D01*
X1867400Y-422400D01*
X1791200Y-346200D02*
X1778500Y-346200D01*
X1791200Y-346200D02*
X1867400Y-422400D01*
D33*
X381500Y-701800D03*
D31*
X241800Y-701800D01*
X229100Y-714500D01*
D33*
X229100Y-714500D03*
D25*
X711700Y-879600D03*
X686300Y-879600D03*
D31*
X711700Y-879600D01*
D25*
X749800Y-892300D03*
D31*
X775200Y-892300D01*
X800600Y-866900D01*
X800600Y-676400D02*
X813300Y-663700D01*
D25*
X1422900Y-689100D03*
X1613400Y-689100D03*
D31*
X1664200Y-689100D01*
D25*
X1664200Y-689100D03*
X1803900Y-689100D03*
D31*
X1803900Y-638300D01*
D25*
X1803900Y-638300D03*
D31*
X800600Y-676400D02*
X800600Y-866900D01*
X813300Y-663700D02*
X1410200Y-663700D01*
X1422900Y-676400D01*
X1422900Y-689100D01*
D29*
X635500Y-917700D03*
X635500Y-714500D03*
D23*
X635500Y-917700D01*
D33*
X737100Y-714500D03*
D31*
X635500Y-714500D01*
D33*
X610100Y-841500D03*
D31*
X622800Y-854200D01*
X622800Y-905000D01*
X635500Y-917700D01*
D25*
X737100Y-879600D03*
D31*
X775200Y-879600D01*
X787900Y-866900D01*
X787900Y-663700D01*
X800600Y-651000D01*
X1410200Y-651000D01*
X1461000Y-701800D01*
X1588000Y-701800D02*
X1676900Y-701800D01*
X1689600Y-689100D01*
X1740400Y-689100D01*
X1753100Y-676400D01*
X1753100Y-638300D01*
X1778500Y-612900D02*
X1778500Y-587500D01*
X1778500Y-612900D02*
X1753100Y-638300D01*
D25*
X1461000Y-701800D03*
X1588000Y-701800D03*
D33*
X673600Y-701800D03*
D31*
X533900Y-701800D01*
X521200Y-714500D01*
D33*
X521200Y-714500D03*
D25*
X978400Y-879600D03*
X1003800Y-879600D03*
D31*
X978400Y-879600D01*
D25*
X1041900Y-892300D03*
D31*
X1067300Y-892300D01*
X1092700Y-701800D02*
X1105400Y-689100D01*
X1092700Y-866900D02*
X1067300Y-892300D01*
X1092700Y-866900D02*
X1092700Y-701800D01*
D25*
X1384800Y-689100D03*
D31*
X1105400Y-689100D01*
D25*
X1410200Y-308100D03*
D31*
X1461000Y-308100D01*
D29*
X927600Y-714500D03*
X927600Y-917700D03*
D23*
X927600Y-714500D01*
D33*
X902200Y-841500D03*
D31*
X914900Y-854200D01*
X914900Y-905000D01*
X927600Y-917700D01*
D33*
X1029200Y-714500D03*
D31*
X927600Y-714500D01*
D25*
X1029200Y-879600D03*
D31*
X1067300Y-879600D02*
X1080000Y-866900D01*
X1080000Y-701800D02*
X1105400Y-676400D01*
X1067300Y-879600D02*
X1029200Y-879600D01*
X1080000Y-866900D02*
X1080000Y-701800D01*
D25*
X1397500Y-676400D03*
D31*
X1105400Y-676400D01*
D25*
X1537200Y-663700D03*
D31*
X1537200Y-574800D01*
D25*
X1537200Y-574800D03*
X1537200Y-524000D03*
D31*
X1537200Y-371600D02*
X1511800Y-346200D01*
X1511800Y-308100D01*
X1537200Y-371600D02*
X1537200Y-524000D01*
D25*
X813300Y-714500D03*
X965700Y-701800D03*
D31*
X826000Y-701800D01*
X813300Y-714500D01*
D25*
X1295900Y-879600D03*
X1270500Y-879600D03*
D31*
X1295900Y-879600D01*
D25*
X1334000Y-892300D03*
D31*
X1384800Y-892300D01*
D25*
X1384800Y-892300D03*
X1499100Y-714500D03*
D31*
X1499100Y-587500D02*
X1486400Y-574800D01*
D25*
X1486400Y-574800D03*
D31*
X1499100Y-587500D02*
X1499100Y-714500D01*
D29*
X1219700Y-917700D03*
X1219700Y-714500D03*
D23*
X1219700Y-917700D01*
D25*
X1194300Y-841500D03*
D31*
X1207000Y-854200D01*
X1207000Y-905000D01*
X1219700Y-917700D01*
D25*
X1321300Y-879600D03*
D31*
X1397500Y-879600D01*
D25*
X1397500Y-879600D03*
X1511800Y-714500D03*
D31*
X1511800Y-663700D02*
X1524500Y-651000D01*
X1524500Y-562100D01*
X1511800Y-549400D01*
X1511800Y-663700D02*
X1511800Y-714500D01*
D25*
X1105400Y-714500D03*
X1257800Y-701800D03*
D31*
X1118100Y-701800D02*
X1105400Y-714500D01*
X1118100Y-701800D02*
X1257800Y-701800D01*
D25*
X-151900Y-320800D03*
X-190000Y-320800D03*
D31*
X-151900Y-320800D01*
D25*
X-151900Y-270000D03*
D31*
X-151900Y-244600D01*
X-139200Y-231900D01*
X1956300Y-231900D02*
X1969000Y-244600D01*
X1969000Y-384300D01*
X1956300Y-397000D01*
X1930900Y-397000D01*
X1956300Y-231900D02*
X-139200Y-231900D01*
D29*
X-240800Y-485900D03*
X-240800Y-282700D03*
D23*
X-240800Y-485900D01*
D25*
X-126500Y-244600D03*
D31*
X1943600Y-244600D02*
X1956300Y-257300D01*
X1956300Y-333500D02*
X1943600Y-346200D01*
X1930900Y-346200D01*
X1943600Y-244600D02*
X-126500Y-244600D01*
X1956300Y-257300D02*
X1956300Y-333500D01*
D33*
X-202700Y-498600D03*
D31*
X-342400Y-498600D02*
X-355100Y-485900D01*
D33*
X-355100Y-485900D03*
D31*
X-342400Y-498600D02*
X-202700Y-498600D01*
D25*
X102100Y-320800D03*
X140200Y-320800D03*
D31*
X102100Y-320800D01*
D25*
X140200Y-270000D03*
D31*
X152900Y-257300D01*
X1880100Y-257300D01*
X1905500Y-282700D01*
X1905500Y-409700D01*
X1918200Y-422400D01*
X1969000Y-422400D01*
X2007100Y-460500D02*
X2007100Y-536700D01*
X2007100Y-460500D02*
X1969000Y-422400D01*
D29*
X51300Y-485900D03*
X51300Y-282700D03*
D23*
X51300Y-485900D01*
D31*
X1994400Y-587500D02*
X2007100Y-587500D01*
X1994400Y-587500D02*
X1981700Y-574800D01*
X1981700Y-460500D02*
X1956300Y-435100D01*
X1905500Y-435100D02*
X1892800Y-422400D01*
X1892800Y-295400D02*
X1867400Y-270000D01*
X1740400Y-270000D02*
X1727700Y-282700D01*
X1727700Y-308100D02*
X1715000Y-320800D01*
X1689600Y-320800D01*
X1676900Y-308100D01*
X1676900Y-282700D01*
X1664200Y-270000D01*
X1981700Y-460500D02*
X1981700Y-574800D01*
X1956300Y-435100D02*
X1905500Y-435100D01*
X1892800Y-422400D02*
X1892800Y-295400D01*
X1867400Y-270000D02*
X1740400Y-270000D01*
X1727700Y-282700D02*
X1727700Y-308100D01*
D25*
X162700Y-311000D03*
D31*
X162700Y-272900D01*
X165600Y-270000D01*
X1664200Y-270000D01*
D33*
X89400Y-498600D03*
D31*
X-50300Y-498600D01*
X-63000Y-485900D01*
D33*
X-63000Y-485900D03*
D25*
X432300Y-320800D03*
X381500Y-320800D03*
D31*
X432300Y-320800D01*
D25*
X409800Y-311000D03*
D31*
X435200Y-311000D01*
X457700Y-574800D02*
X470400Y-587500D01*
X1384800Y-587500D02*
X1397500Y-574800D01*
X1422900Y-422400D02*
X1473700Y-422400D01*
X1486400Y-409700D01*
X1511800Y-282700D02*
X1651500Y-282700D01*
X1664200Y-295400D01*
X1664200Y-384300D01*
X1676900Y-397000D01*
X1702300Y-397000D01*
X457700Y-333500D02*
X435200Y-311000D01*
X457700Y-333500D02*
X457700Y-574800D01*
X470400Y-587500D02*
X1384800Y-587500D01*
X1397500Y-574800D02*
X1397500Y-447800D01*
X1422900Y-422400D01*
X1486400Y-409700D02*
X1486400Y-308100D01*
X1511800Y-282700D01*
D29*
X343400Y-485900D03*
X343400Y-282700D03*
D23*
X343400Y-485900D01*
D25*
X451350Y-314450D03*
D31*
X470400Y-333500D01*
X470400Y-562100D01*
X483100Y-574800D01*
X1372100Y-574800D01*
X1384800Y-562100D01*
X1384800Y-435100D01*
X1410200Y-409700D01*
X1461000Y-409700D01*
D25*
X1461000Y-409700D03*
X1499100Y-358900D03*
D31*
X1499100Y-320800D01*
D25*
X1499100Y-320800D03*
X1524500Y-320800D03*
X1651500Y-333500D03*
D31*
X1549900Y-333500D01*
X1537200Y-320800D01*
X1524500Y-320800D01*
D33*
X381500Y-498600D03*
D31*
X241800Y-498600D01*
X229100Y-485900D01*
D33*
X229100Y-485900D03*
D25*
X673600Y-320800D03*
X737100Y-320800D03*
D31*
X673600Y-320800D01*
D25*
X714600Y-311000D03*
D31*
X717500Y-308100D01*
X737100Y-308100D01*
X749800Y-320800D01*
X749800Y-549400D01*
X762500Y-562100D01*
D25*
X1168900Y-562100D03*
D31*
X762500Y-562100D01*
D25*
X1384800Y-638300D03*
D31*
X1473700Y-739900D02*
X1486400Y-752600D01*
X1524500Y-752600D01*
X1537200Y-739900D01*
X1537200Y-727200D01*
X1549900Y-714500D01*
X1562600Y-714500D01*
X1575300Y-701800D01*
X1575300Y-689100D01*
X1588000Y-676400D01*
X1689600Y-676400D01*
X1702300Y-663700D01*
X1702300Y-638300D01*
X1473700Y-701800D02*
X1473700Y-739900D01*
X1410200Y-638300D02*
X1384800Y-638300D01*
X1410200Y-638300D02*
X1473700Y-701800D01*
D29*
X635500Y-485900D03*
X635500Y-282700D03*
D23*
X635500Y-485900D01*
D25*
X760900Y-322400D03*
D31*
X1676900Y-612900D02*
X1702300Y-587500D01*
X1676900Y-612900D02*
X1676900Y-651000D01*
X1664200Y-663700D01*
X1588000Y-663700D01*
X1511800Y-739900D01*
X1499100Y-739900D01*
X1486400Y-727200D01*
X1486400Y-701800D01*
D25*
X1384800Y-625600D03*
X1181600Y-549400D03*
D31*
X775200Y-549400D01*
X760900Y-535100D02*
X760900Y-322400D01*
X760900Y-535100D02*
X775200Y-549400D01*
X1384800Y-625600D02*
X1410200Y-625600D01*
X1486400Y-701800D01*
D33*
X673600Y-498600D03*
D31*
X533900Y-498600D01*
X521200Y-485900D01*
D33*
X521200Y-485900D03*
D25*
X965700Y-320800D03*
X1029200Y-320800D03*
D31*
X965700Y-320800D01*
D25*
X994000Y-311000D03*
D31*
X996900Y-308100D01*
X1029200Y-308100D01*
X1041900Y-320800D01*
X1041900Y-524000D01*
X1054600Y-536700D01*
X1181600Y-536700D01*
X1207000Y-562100D01*
X1359400Y-562100D01*
X1372100Y-549400D01*
X1372100Y-409700D01*
X1422900Y-358900D02*
X1461000Y-358900D01*
X1473700Y-346200D01*
X1473700Y-282700D01*
D25*
X1473700Y-282700D03*
D31*
X1422900Y-358900D02*
X1372100Y-409700D01*
D25*
X1537200Y-333500D03*
D31*
X1562600Y-358900D01*
X1562600Y-384300D01*
D29*
X927600Y-282700D03*
X927600Y-485900D03*
D23*
X927600Y-282700D01*
D25*
X1053000Y-322400D03*
D31*
X1054600Y-324000D01*
X1054600Y-511300D01*
X1067300Y-524000D01*
X1194300Y-524000D01*
X1219700Y-549400D02*
X1346700Y-549400D01*
X1359400Y-536700D01*
X1410200Y-358900D02*
X1410200Y-346200D01*
D25*
X1410200Y-346200D03*
D31*
X1219700Y-549400D02*
X1194300Y-524000D01*
X1359400Y-536700D02*
X1359400Y-409700D01*
X1410200Y-358900D01*
D33*
X813300Y-485900D03*
D31*
X826000Y-498600D01*
X965700Y-498600D01*
D33*
X965700Y-498600D03*
D25*
X1321300Y-320800D03*
X1257800Y-320800D03*
D31*
X1321300Y-320800D01*
D25*
X1284800Y-309700D03*
D31*
X1286400Y-308100D01*
X1321300Y-308100D01*
X1334000Y-320800D01*
D25*
X1334000Y-536700D03*
X1334000Y-600200D03*
D31*
X1384800Y-600200D01*
X1334000Y-536700D02*
X1334000Y-320800D01*
X1562600Y-574800D02*
X1562600Y-625600D01*
X1422900Y-524000D02*
X1410200Y-536700D01*
X1410200Y-574800D01*
X1511800Y-524000D02*
X1562600Y-574800D01*
X1511800Y-524000D02*
X1422900Y-524000D01*
X1410200Y-574800D02*
X1384800Y-600200D01*
D29*
X1219700Y-282700D03*
X1219700Y-485900D03*
D23*
X1219700Y-282700D01*
D25*
X1346700Y-320800D03*
X1486400Y-612900D03*
D31*
X1473700Y-600200D01*
X1410200Y-600200D01*
X1397500Y-612900D01*
X1384800Y-612900D01*
D25*
X1384800Y-612900D03*
X1372100Y-320800D03*
D31*
X1346700Y-320800D01*
D33*
X1257800Y-498600D03*
D31*
X1118100Y-498600D01*
X1105400Y-485900D01*
D33*
X1105400Y-485900D03*
D30*
X-650000Y-670000D03*
X-1015000Y-322500D03*
D26*
X-967500Y-322500D01*
X-960000Y-315000D01*
X-960000Y-235503D01*
X-955000Y-230503D01*
X-729497Y-230503D01*
X-705000Y-590000D02*
X-690000Y-605000D01*
X-705000Y-255000D02*
X-729497Y-230503D01*
X-705000Y-255000D02*
X-705000Y-590000D01*
X-655000Y-605000D02*
X-650000Y-610000D01*
X-655000Y-605000D02*
X-690000Y-605000D01*
X-650000Y-610000D02*
X-650000Y-670000D01*
M02*
