G04 EAGLE Gerber RS-274X export*
G75*
%MOMM*%
%FSLAX34Y34*%
%LPD*%
%INSoldermask Top*%
%IPPOS*%
%AMOC8*
5,1,8,0,0,1.08239X$1,22.5*%
G01*
%ADD10C,1.203200*%
%ADD11P,2.309387X8X22.500000*%
%ADD12P,2.309387X8X202.500000*%
%ADD13P,2.309387X8X112.500000*%
%ADD14P,2.309387X8X292.500000*%
%ADD15R,0.803200X0.903200*%
%ADD16R,1.653200X0.653200*%
%ADD17R,1.503200X1.703200*%
%ADD18R,1.803200X2.006200*%
%ADD19R,2.003200X3.403200*%
%ADD20R,1.603200X1.203200*%
%ADD21R,1.103200X1.003200*%
%ADD22R,0.903200X1.103200*%
%ADD23R,1.703200X1.503200*%
%ADD24R,1.303200X1.203200*%
%ADD25R,1.403200X0.903200*%
%ADD26R,1.803200X2.003200*%
%ADD27R,0.965200X1.727200*%
%ADD28C,2.743200*%
%ADD29R,1.203200X1.303200*%
%ADD30C,2.082800*%
%ADD31C,2.903200*%
%ADD32C,1.853200*%
%ADD33C,1.727200*%
%ADD34C,1.524000*%
%ADD35R,6.903200X6.903200*%
%ADD36R,1.803200X3.203200*%
%ADD37C,2.082800*%
%ADD38R,3.703200X2.703200*%
%ADD39R,3.203200X1.803200*%
%ADD40R,1.711200X1.711200*%
%ADD41C,1.711200*%
%ADD42R,1.703200X2.103200*%
%ADD43R,2.003200X1.803200*%
%ADD44R,2.006200X1.803200*%
%ADD45R,2.453200X3.353200*%
%ADD46R,5.603200X3.103200*%
%ADD47R,1.731200X0.853200*%
%ADD48C,1.409600*%
%ADD49C,0.959600*%
%ADD50C,1.703200*%
%ADD51C,1.109600*%
%ADD52C,1.059600*%
%ADD53C,1.009600*%


D10*
X2108700Y-244600D03*
X2108700Y-968500D03*
X-1637800Y-968500D03*
X-1637800Y-244600D03*
D11*
X-1155200Y-270000D03*
X-1155200Y-295400D03*
X-1155200Y-320800D03*
X-1155200Y-346200D03*
X-1155200Y-371600D03*
X-1155200Y-397000D03*
X-1155200Y-422400D03*
X-1155200Y-447800D03*
D12*
X-1155200Y-473200D03*
X-1155200Y-498600D03*
X-1155200Y-524000D03*
X-1155200Y-549400D03*
X-1155200Y-574800D03*
X-1155200Y-600200D03*
X-1155200Y-625600D03*
X-1155200Y-651000D03*
X-1155200Y-676400D03*
X-1155200Y-701800D03*
X-1155200Y-727200D03*
D11*
X-1129800Y-270000D03*
X-1129800Y-295400D03*
X-1129800Y-320800D03*
X-1129800Y-346200D03*
X-1129800Y-371600D03*
X-1129800Y-397000D03*
X-1129800Y-422400D03*
X-1129800Y-447800D03*
X-1129800Y-473200D03*
X-1129800Y-498600D03*
X-1129800Y-524000D03*
X-1129800Y-549400D03*
X-1129800Y-574800D03*
X-1129800Y-600200D03*
X-1129800Y-625600D03*
X-1129800Y-651000D03*
X-1129800Y-676400D03*
X-1129800Y-701800D03*
D12*
X-1129800Y-727200D03*
D11*
X-1104400Y-270000D03*
X-1104400Y-295400D03*
X-1104400Y-320800D03*
X-1104400Y-346200D03*
X-1104400Y-371600D03*
X-1104400Y-397000D03*
D12*
X-1104400Y-422400D03*
D11*
X-1104400Y-447800D03*
X-1104400Y-473200D03*
X-1104400Y-498600D03*
X-1104400Y-524000D03*
X-1104400Y-549400D03*
X-1104400Y-574800D03*
X-1104400Y-600200D03*
X-1104400Y-625600D03*
X-1104400Y-651000D03*
X-1104400Y-676400D03*
X-1104400Y-701800D03*
X-1104400Y-727200D03*
D13*
X-799600Y-727200D03*
X-799600Y-701800D03*
X-799600Y-676400D03*
X-799600Y-651000D03*
X-799600Y-625600D03*
X-799600Y-600200D03*
X-799600Y-574800D03*
X-799600Y-549400D03*
X-799600Y-524000D03*
X-799600Y-498600D03*
X-799600Y-473200D03*
X-799600Y-447800D03*
X-799600Y-422400D03*
X-799600Y-397000D03*
X-799600Y-371600D03*
X-799600Y-346200D03*
X-799600Y-320800D03*
X-799600Y-295400D03*
X-799600Y-270000D03*
D14*
X-825000Y-727200D03*
D13*
X-825000Y-701800D03*
X-825000Y-676400D03*
X-825000Y-651000D03*
X-825000Y-625600D03*
X-825000Y-600200D03*
X-825000Y-574800D03*
X-825000Y-549400D03*
X-825000Y-524000D03*
X-825000Y-498600D03*
X-825000Y-473200D03*
X-825000Y-447800D03*
X-825000Y-422400D03*
X-825000Y-397000D03*
X-825000Y-371600D03*
X-825000Y-346200D03*
X-825000Y-320800D03*
D12*
X-825000Y-295400D03*
X-825000Y-270000D03*
D13*
X-850400Y-727200D03*
X-850400Y-701800D03*
X-850400Y-676400D03*
X-850400Y-651000D03*
X-850400Y-625600D03*
X-850400Y-600200D03*
X-850400Y-574800D03*
X-850400Y-549400D03*
X-850400Y-524000D03*
X-850400Y-498600D03*
X-850400Y-473200D03*
X-850400Y-447800D03*
X-850400Y-422400D03*
X-850400Y-397000D03*
X-850400Y-371600D03*
X-850400Y-346200D03*
D12*
X-850400Y-320800D03*
X-850400Y-295400D03*
X-850400Y-270000D03*
D15*
X-931600Y-397000D03*
X-921600Y-397000D03*
X-931600Y-320800D03*
X-921600Y-320800D03*
D16*
X-1252700Y-578650D03*
X-1252700Y-572150D03*
X-1252700Y-565650D03*
X-1252700Y-559150D03*
X-1252700Y-552650D03*
X-1252700Y-546150D03*
X-1252700Y-539650D03*
X-1252700Y-533150D03*
X-1252700Y-526650D03*
X-1252700Y-520150D03*
X-1311700Y-520150D03*
X-1311700Y-526650D03*
X-1311700Y-533150D03*
X-1311700Y-539650D03*
X-1311700Y-546150D03*
X-1311700Y-552650D03*
X-1311700Y-559150D03*
X-1311700Y-565650D03*
X-1311700Y-572150D03*
X-1311700Y-578650D03*
D17*
X-1399700Y-295400D03*
X-1418700Y-295400D03*
D18*
X-1394980Y-270000D03*
X-1423420Y-270000D03*
D17*
X-1399700Y-384300D03*
X-1418700Y-384300D03*
D18*
X-1394980Y-346200D03*
X-1423420Y-346200D03*
D17*
X-1399700Y-473200D03*
X-1418700Y-473200D03*
D18*
X-1394980Y-435100D03*
X-1423420Y-435100D03*
D17*
X-1399700Y-562100D03*
X-1418700Y-562100D03*
D18*
X-1394980Y-524000D03*
X-1423420Y-524000D03*
D17*
X-1399700Y-651000D03*
X-1418700Y-651000D03*
D18*
X-1394980Y-612900D03*
X-1423420Y-612900D03*
D17*
X-1418700Y-739900D03*
X-1399700Y-739900D03*
D18*
X-1394980Y-701800D03*
X-1423420Y-701800D03*
D19*
X-1520900Y-257300D03*
X-1576900Y-257300D03*
D20*
X-1585300Y-333500D03*
X-1563300Y-324000D03*
X-1563300Y-343000D03*
D21*
X-1531438Y-295400D03*
X-1515562Y-295400D03*
D22*
X-1567800Y-295400D03*
X-1580800Y-295400D03*
X-1530000Y-333500D03*
X-1517000Y-333500D03*
D19*
X-1520900Y-384300D03*
X-1576900Y-384300D03*
D20*
X-1585300Y-460500D03*
X-1563300Y-451000D03*
X-1563300Y-470000D03*
D21*
X-1531438Y-422400D03*
X-1515562Y-422400D03*
D22*
X-1567800Y-422400D03*
X-1580800Y-422400D03*
X-1530000Y-460500D03*
X-1517000Y-460500D03*
D19*
X-1520900Y-511300D03*
X-1576900Y-511300D03*
D20*
X-1585300Y-587500D03*
X-1563300Y-578000D03*
X-1563300Y-597000D03*
D21*
X-1531438Y-549400D03*
X-1515562Y-549400D03*
D22*
X-1567800Y-549400D03*
X-1580800Y-549400D03*
X-1530000Y-587500D03*
X-1517000Y-587500D03*
D19*
X-1520900Y-638300D03*
X-1576900Y-638300D03*
D20*
X-1585300Y-714500D03*
X-1563300Y-705000D03*
X-1563300Y-724000D03*
D21*
X-1531438Y-676400D03*
X-1515562Y-676400D03*
D22*
X-1567800Y-676400D03*
X-1580800Y-676400D03*
X-1530000Y-714500D03*
X-1517000Y-714500D03*
D19*
X-1520900Y-765300D03*
X-1576900Y-765300D03*
D20*
X-1585300Y-854200D03*
X-1563300Y-844700D03*
X-1563300Y-863700D03*
D21*
X-1531438Y-803400D03*
X-1515562Y-803400D03*
D22*
X-1567800Y-803400D03*
X-1580800Y-803400D03*
X-1530000Y-841500D03*
X-1517000Y-841500D03*
D23*
X-1294900Y-800200D03*
X-1294900Y-781200D03*
D24*
X-1316100Y-739900D03*
X-1299100Y-739900D03*
D19*
X-1310200Y-841500D03*
X-1254200Y-841500D03*
D23*
X-1269500Y-800200D03*
X-1269500Y-781200D03*
D24*
X-1290700Y-714500D03*
X-1273700Y-714500D03*
X-1265300Y-739900D03*
X-1248300Y-739900D03*
D21*
X-1304900Y-641500D03*
X-1304900Y-660500D03*
X-1283900Y-651000D03*
D17*
X-1171100Y-790700D03*
X-1190100Y-790700D03*
X-1082200Y-790700D03*
X-1101200Y-790700D03*
D25*
X-1238300Y-638300D03*
X-1275300Y-638300D03*
D17*
X-1266300Y-663700D03*
X-1247300Y-663700D03*
D18*
X-1267980Y-485900D03*
X-1296420Y-485900D03*
D26*
X-1296200Y-435100D03*
X-1268200Y-435100D03*
D17*
X-1228200Y-524000D03*
X-1209200Y-524000D03*
X-1291700Y-460500D03*
X-1272700Y-460500D03*
X-1228200Y-549400D03*
X-1209200Y-549400D03*
D22*
X-1275700Y-371600D03*
X-1288700Y-371600D03*
D27*
X-1301250Y-348740D03*
X-1301250Y-292860D03*
X-1263150Y-348740D03*
X-1263150Y-292860D03*
D28*
X-888500Y-917700D02*
X-888500Y-943100D01*
X-786900Y-790700D02*
X-786900Y-765300D01*
X-888500Y-765300D02*
X-888500Y-790700D01*
X-786900Y-917700D02*
X-786900Y-943100D01*
D29*
X-1074800Y-371600D03*
X-1057800Y-371600D03*
D30*
X-1256800Y-946402D02*
X-1256800Y-965198D01*
X-1282200Y-965198D02*
X-1282200Y-946402D01*
X-1307600Y-946402D02*
X-1307600Y-965198D01*
X-1333000Y-965198D02*
X-1333000Y-946402D01*
X-1358400Y-946402D02*
X-1358400Y-965198D01*
X-1383800Y-965198D02*
X-1383800Y-946402D01*
D31*
X-1460400Y-917700D03*
X-1510400Y-917700D03*
D32*
X-1430400Y-967700D03*
X-1540400Y-967700D03*
D31*
X-952400Y-917700D03*
X-1002400Y-917700D03*
D32*
X-922400Y-967700D03*
X-1032400Y-967700D03*
D33*
X-1599700Y-963420D02*
X-1599700Y-948180D01*
X-1574300Y-948180D02*
X-1574300Y-963420D01*
D34*
X-945904Y-778000D02*
X-932696Y-778000D01*
X-1008896Y-778000D02*
X-1022104Y-778000D01*
D35*
X-1180600Y-917700D03*
D36*
X-1157600Y-851200D03*
X-1203600Y-851200D03*
D35*
X-1091700Y-917700D03*
D36*
X-1068700Y-851200D03*
X-1114700Y-851200D03*
D37*
X-723400Y-549400D03*
X-723400Y-524000D03*
X-723400Y-498600D03*
X-723400Y-473200D03*
X-723400Y-447800D03*
X-723400Y-422400D03*
X-723400Y-397000D03*
X-723400Y-371600D03*
X-723400Y-346200D03*
X-723400Y-320800D03*
X-723400Y-295400D03*
X-723400Y-270000D03*
D30*
X-714002Y-917700D02*
X-732798Y-917700D01*
X-732798Y-892300D02*
X-714002Y-892300D01*
X-714002Y-866900D02*
X-732798Y-866900D01*
X-732798Y-841500D02*
X-714002Y-841500D01*
X-714002Y-816100D02*
X-732798Y-816100D01*
X-732798Y-790700D02*
X-714002Y-790700D01*
D37*
X-672600Y-549400D03*
X-672600Y-524000D03*
X-672600Y-498600D03*
X-672600Y-473200D03*
X-672600Y-447800D03*
X-672600Y-422400D03*
X-672600Y-397000D03*
X-672600Y-371600D03*
X-672600Y-346200D03*
X-672600Y-320800D03*
X-672600Y-295400D03*
X-672600Y-270000D03*
D30*
X-663202Y-917700D02*
X-681998Y-917700D01*
X-681998Y-892300D02*
X-663202Y-892300D01*
X-663202Y-866900D02*
X-681998Y-866900D01*
X-681998Y-841500D02*
X-663202Y-841500D01*
X-663202Y-816100D02*
X-681998Y-816100D01*
X-681998Y-790700D02*
X-663202Y-790700D01*
D38*
X-324100Y-600200D03*
X-259100Y-600200D03*
D35*
X-304300Y-714500D03*
D39*
X-237800Y-737500D03*
X-237800Y-691500D03*
D35*
X-304300Y-917700D03*
D39*
X-237800Y-940700D03*
X-237800Y-894700D03*
D40*
X2007100Y-422400D03*
D41*
X2007100Y-397000D03*
X2007100Y-346200D03*
X2007100Y-295400D03*
D42*
X-113800Y-771100D03*
X-139200Y-771100D03*
X-164600Y-771100D03*
X-190000Y-771100D03*
X-190000Y-861100D03*
X-164600Y-861100D03*
X-139200Y-861100D03*
X-113800Y-861100D03*
D26*
X-137900Y-930400D03*
X-165900Y-930400D03*
D43*
X1969000Y-395700D03*
X1969000Y-423700D03*
D17*
X-142400Y-905000D03*
X-161400Y-905000D03*
D23*
X-113800Y-908200D03*
X-113800Y-927200D03*
D44*
X-190000Y-903480D03*
X-190000Y-931920D03*
D23*
X-228100Y-825600D03*
X-228100Y-806600D03*
D45*
X-321100Y-816100D03*
X-262100Y-816100D03*
X-168700Y-701800D03*
X-109700Y-701800D03*
D28*
X1588000Y-727200D02*
X1613400Y-727200D01*
X2045200Y-955800D02*
X2070600Y-955800D01*
X2070600Y-727200D02*
X2045200Y-727200D01*
X1613400Y-955800D02*
X1588000Y-955800D01*
D46*
X-532900Y-940800D03*
X-532900Y-843800D03*
D43*
X-355100Y-931700D03*
X-355100Y-903700D03*
X-202700Y-715800D03*
X-202700Y-687800D03*
D44*
X-355100Y-801880D03*
X-355100Y-830320D03*
X-355100Y-700280D03*
X-355100Y-728720D03*
D38*
X-32000Y-600200D03*
X33000Y-600200D03*
D35*
X-12200Y-714500D03*
D39*
X54300Y-737500D03*
X54300Y-691500D03*
D35*
X-12200Y-917700D03*
D39*
X54300Y-940700D03*
X54300Y-894700D03*
D40*
X1930900Y-511300D03*
D41*
X1930900Y-536700D03*
X1930900Y-587500D03*
X1930900Y-638300D03*
D42*
X178300Y-771100D03*
X152900Y-771100D03*
X127500Y-771100D03*
X102100Y-771100D03*
X102100Y-861100D03*
X127500Y-861100D03*
X152900Y-861100D03*
X178300Y-861100D03*
D26*
X154200Y-930400D03*
X126200Y-930400D03*
D43*
X1969000Y-637000D03*
X1969000Y-665000D03*
D17*
X149700Y-905000D03*
X130700Y-905000D03*
D23*
X178300Y-908200D03*
X178300Y-927200D03*
D44*
X102100Y-903480D03*
X102100Y-931920D03*
D23*
X64000Y-825600D03*
X64000Y-806600D03*
D45*
X-29000Y-816100D03*
X30000Y-816100D03*
X123400Y-701800D03*
X182400Y-701800D03*
D43*
X-63000Y-931700D03*
X-63000Y-903700D03*
X89400Y-715800D03*
X89400Y-687800D03*
D44*
X-63000Y-801880D03*
X-63000Y-830320D03*
X-63000Y-700280D03*
X-63000Y-728720D03*
D38*
X260100Y-600200D03*
X325100Y-600200D03*
D35*
X279900Y-714500D03*
D39*
X346400Y-737500D03*
X346400Y-691500D03*
D35*
X279900Y-917700D03*
D39*
X346400Y-940700D03*
X346400Y-894700D03*
D40*
X1778500Y-422400D03*
D41*
X1778500Y-397000D03*
X1778500Y-346200D03*
X1778500Y-295400D03*
D42*
X470400Y-771100D03*
X445000Y-771100D03*
X419600Y-771100D03*
X394200Y-771100D03*
X394200Y-861100D03*
X419600Y-861100D03*
X445000Y-861100D03*
X470400Y-861100D03*
D26*
X446300Y-930400D03*
X418300Y-930400D03*
D43*
X1740400Y-296700D03*
X1740400Y-268700D03*
D17*
X441800Y-905000D03*
X422800Y-905000D03*
D23*
X470400Y-908200D03*
X470400Y-927200D03*
D44*
X394200Y-903480D03*
X394200Y-931920D03*
D23*
X356100Y-825600D03*
X356100Y-806600D03*
D45*
X263100Y-816100D03*
X322100Y-816100D03*
X415500Y-701800D03*
X474500Y-701800D03*
D43*
X229100Y-931700D03*
X229100Y-903700D03*
X381500Y-715800D03*
X381500Y-687800D03*
D44*
X229100Y-801880D03*
X229100Y-830320D03*
X229100Y-700280D03*
X229100Y-728720D03*
D38*
X552200Y-600200D03*
X617200Y-600200D03*
D35*
X572000Y-714500D03*
D39*
X638500Y-737500D03*
X638500Y-691500D03*
D35*
X572000Y-917700D03*
D39*
X638500Y-940700D03*
X638500Y-894700D03*
D40*
X1778500Y-663700D03*
D41*
X1778500Y-638300D03*
X1778500Y-587500D03*
X1778500Y-536700D03*
D42*
X762500Y-771100D03*
X737100Y-771100D03*
X711700Y-771100D03*
X686300Y-771100D03*
X686300Y-861100D03*
X711700Y-861100D03*
X737100Y-861100D03*
X762500Y-861100D03*
D26*
X738400Y-930400D03*
X710400Y-930400D03*
D43*
X1740400Y-538000D03*
X1740400Y-510000D03*
D17*
X733900Y-905000D03*
X714900Y-905000D03*
D23*
X762500Y-908200D03*
X762500Y-927200D03*
D44*
X686300Y-903480D03*
X686300Y-931920D03*
D23*
X648200Y-825600D03*
X648200Y-806600D03*
D45*
X555200Y-816100D03*
X614200Y-816100D03*
X707600Y-701800D03*
X766600Y-701800D03*
D43*
X521200Y-931700D03*
X521200Y-903700D03*
X673600Y-715800D03*
X673600Y-687800D03*
D44*
X521200Y-801880D03*
X521200Y-830320D03*
X521200Y-700280D03*
X521200Y-728720D03*
D38*
X844300Y-600200D03*
X909300Y-600200D03*
D35*
X864100Y-714500D03*
D39*
X930600Y-737500D03*
X930600Y-691500D03*
D35*
X864100Y-917700D03*
D39*
X930600Y-940700D03*
X930600Y-894700D03*
D40*
X1588000Y-308100D03*
D41*
X1562600Y-308100D03*
X1511800Y-308100D03*
X1461000Y-308100D03*
D42*
X1054600Y-771100D03*
X1029200Y-771100D03*
X1003800Y-771100D03*
X978400Y-771100D03*
X978400Y-861100D03*
X1003800Y-861100D03*
X1029200Y-861100D03*
X1054600Y-861100D03*
D26*
X1030500Y-930400D03*
X1002500Y-930400D03*
X1561300Y-346200D03*
X1589300Y-346200D03*
D17*
X1026000Y-905000D03*
X1007000Y-905000D03*
D23*
X1054600Y-908200D03*
X1054600Y-927200D03*
D44*
X978400Y-903480D03*
X978400Y-931920D03*
D23*
X940300Y-825600D03*
X940300Y-806600D03*
D45*
X847300Y-816100D03*
X906300Y-816100D03*
X999700Y-701800D03*
X1058700Y-701800D03*
D43*
X813300Y-931700D03*
X813300Y-903700D03*
X965700Y-715800D03*
X965700Y-687800D03*
D44*
X813300Y-801880D03*
X813300Y-830320D03*
X813300Y-700280D03*
X813300Y-728720D03*
D35*
X1156200Y-714500D03*
D39*
X1222700Y-737500D03*
X1222700Y-691500D03*
D35*
X1156200Y-917700D03*
D39*
X1222700Y-940700D03*
X1222700Y-894700D03*
D40*
X1588000Y-549400D03*
D41*
X1562600Y-549400D03*
X1511800Y-549400D03*
X1461000Y-549400D03*
D42*
X1346700Y-771100D03*
X1321300Y-771100D03*
X1295900Y-771100D03*
X1270500Y-771100D03*
X1270500Y-861100D03*
X1295900Y-861100D03*
X1321300Y-861100D03*
X1346700Y-861100D03*
D26*
X1322600Y-930400D03*
X1294600Y-930400D03*
X1561300Y-587500D03*
X1589300Y-587500D03*
D17*
X1318100Y-905000D03*
X1299100Y-905000D03*
D23*
X1346700Y-908200D03*
X1346700Y-927200D03*
D44*
X1270500Y-903480D03*
X1270500Y-931920D03*
D23*
X1232400Y-825600D03*
X1232400Y-806600D03*
D45*
X1139400Y-816100D03*
X1198400Y-816100D03*
X1291800Y-701800D03*
X1350800Y-701800D03*
D43*
X1105400Y-931700D03*
X1105400Y-903700D03*
X1257800Y-715800D03*
X1257800Y-687800D03*
D44*
X1105400Y-801880D03*
X1105400Y-830320D03*
X1105400Y-700280D03*
X1105400Y-728720D03*
D38*
X-184400Y-600200D03*
X-119400Y-600200D03*
D35*
X-304300Y-485900D03*
D39*
X-237800Y-508900D03*
X-237800Y-462900D03*
D35*
X-304300Y-282700D03*
D39*
X-237800Y-305700D03*
X-237800Y-259700D03*
D40*
X1930900Y-270000D03*
D41*
X1930900Y-295400D03*
X1930900Y-346200D03*
X1930900Y-397000D03*
D42*
X-190000Y-429300D03*
X-164600Y-429300D03*
X-139200Y-429300D03*
X-113800Y-429300D03*
X-113800Y-339300D03*
X-139200Y-339300D03*
X-164600Y-339300D03*
X-190000Y-339300D03*
D26*
X-165900Y-270000D03*
X-137900Y-270000D03*
D43*
X1969000Y-296700D03*
X1969000Y-268700D03*
D17*
X-161400Y-295400D03*
X-142400Y-295400D03*
D23*
X-113800Y-292200D03*
X-113800Y-273200D03*
D44*
X-190000Y-296920D03*
X-190000Y-268480D03*
D23*
X-228100Y-393800D03*
X-228100Y-374800D03*
D45*
X-321100Y-384300D03*
X-262100Y-384300D03*
X-168700Y-498600D03*
X-109700Y-498600D03*
D43*
X-355100Y-268700D03*
X-355100Y-296700D03*
X-202700Y-484600D03*
X-202700Y-512600D03*
D44*
X-355100Y-398520D03*
X-355100Y-370080D03*
X-355100Y-500120D03*
X-355100Y-471680D03*
D38*
X107700Y-600200D03*
X172700Y-600200D03*
D35*
X-12200Y-485900D03*
D39*
X54300Y-508900D03*
X54300Y-462900D03*
D35*
X-12200Y-282700D03*
D39*
X54300Y-305700D03*
X54300Y-259700D03*
D40*
X2007100Y-663700D03*
D41*
X2007100Y-638300D03*
X2007100Y-587500D03*
X2007100Y-536700D03*
D42*
X102100Y-429300D03*
X127500Y-429300D03*
X152900Y-429300D03*
X178300Y-429300D03*
X178300Y-339300D03*
X152900Y-339300D03*
X127500Y-339300D03*
X102100Y-339300D03*
D26*
X126200Y-270000D03*
X154200Y-270000D03*
D43*
X1969000Y-538000D03*
X1969000Y-510000D03*
D17*
X130700Y-295400D03*
X149700Y-295400D03*
D23*
X178300Y-292200D03*
X178300Y-273200D03*
D44*
X102100Y-296920D03*
X102100Y-268480D03*
D23*
X64000Y-393800D03*
X64000Y-374800D03*
D45*
X-29000Y-384300D03*
X30000Y-384300D03*
X123400Y-498600D03*
X182400Y-498600D03*
D43*
X-63000Y-268700D03*
X-63000Y-296700D03*
X89400Y-484600D03*
X89400Y-512600D03*
D44*
X-63000Y-398520D03*
X-63000Y-370080D03*
X-63000Y-500120D03*
X-63000Y-471680D03*
D38*
X399800Y-600200D03*
X464800Y-600200D03*
D35*
X279900Y-485900D03*
D39*
X346400Y-508900D03*
X346400Y-462900D03*
D35*
X279900Y-282700D03*
D39*
X346400Y-305700D03*
X346400Y-259700D03*
D40*
X1702300Y-270000D03*
D41*
X1702300Y-295400D03*
X1702300Y-346200D03*
X1702300Y-397000D03*
D42*
X394200Y-429300D03*
X419600Y-429300D03*
X445000Y-429300D03*
X470400Y-429300D03*
X470400Y-339300D03*
X445000Y-339300D03*
X419600Y-339300D03*
X394200Y-339300D03*
D26*
X418300Y-270000D03*
X446300Y-270000D03*
D43*
X1740400Y-395700D03*
X1740400Y-423700D03*
D17*
X422800Y-295400D03*
X441800Y-295400D03*
D23*
X470400Y-292200D03*
X470400Y-273200D03*
D44*
X394200Y-296920D03*
X394200Y-268480D03*
D23*
X356100Y-393800D03*
X356100Y-374800D03*
D45*
X263100Y-384300D03*
X322100Y-384300D03*
X415500Y-498600D03*
X474500Y-498600D03*
D43*
X229100Y-268700D03*
X229100Y-296700D03*
X381500Y-484600D03*
X381500Y-512600D03*
D44*
X229100Y-398520D03*
X229100Y-370080D03*
X229100Y-500120D03*
X229100Y-471680D03*
D38*
X691900Y-600200D03*
X756900Y-600200D03*
D35*
X572000Y-485900D03*
D39*
X638500Y-508900D03*
X638500Y-462900D03*
D35*
X572000Y-282700D03*
D39*
X638500Y-305700D03*
X638500Y-259700D03*
D40*
X1702300Y-511300D03*
D41*
X1702300Y-536700D03*
X1702300Y-587500D03*
X1702300Y-638300D03*
D42*
X686300Y-429300D03*
X711700Y-429300D03*
X737100Y-429300D03*
X762500Y-429300D03*
X762500Y-339300D03*
X737100Y-339300D03*
X711700Y-339300D03*
X686300Y-339300D03*
D26*
X710400Y-270000D03*
X738400Y-270000D03*
D43*
X1740400Y-637000D03*
X1740400Y-665000D03*
D17*
X714900Y-295400D03*
X733900Y-295400D03*
D23*
X762500Y-292200D03*
X762500Y-273200D03*
D44*
X686300Y-296920D03*
X686300Y-268480D03*
D23*
X648200Y-393800D03*
X648200Y-374800D03*
D45*
X555200Y-384300D03*
X614200Y-384300D03*
X707600Y-498600D03*
X766600Y-498600D03*
D43*
X521200Y-268700D03*
X521200Y-296700D03*
X673600Y-484600D03*
X673600Y-512600D03*
D44*
X521200Y-398520D03*
X521200Y-370080D03*
X521200Y-500120D03*
X521200Y-471680D03*
D38*
X984000Y-600200D03*
X1049000Y-600200D03*
D35*
X864100Y-485900D03*
D39*
X930600Y-508900D03*
X930600Y-462900D03*
D35*
X864100Y-282700D03*
D39*
X930600Y-305700D03*
X930600Y-259700D03*
D40*
X1435600Y-384300D03*
D41*
X1461000Y-384300D03*
X1511800Y-384300D03*
X1562600Y-384300D03*
D42*
X978400Y-429300D03*
X1003800Y-429300D03*
X1029200Y-429300D03*
X1054600Y-429300D03*
X1054600Y-339300D03*
X1029200Y-339300D03*
X1003800Y-339300D03*
X978400Y-339300D03*
D26*
X1002500Y-270000D03*
X1030500Y-270000D03*
X1462300Y-346200D03*
X1434300Y-346200D03*
D17*
X1007000Y-295400D03*
X1026000Y-295400D03*
D23*
X1054600Y-292200D03*
X1054600Y-273200D03*
D44*
X978400Y-296920D03*
X978400Y-268480D03*
D23*
X940300Y-393800D03*
X940300Y-374800D03*
D45*
X847300Y-384300D03*
X906300Y-384300D03*
X999700Y-498600D03*
X1058700Y-498600D03*
D43*
X813300Y-268700D03*
X813300Y-296700D03*
X965700Y-484600D03*
X965700Y-512600D03*
D44*
X813300Y-398520D03*
X813300Y-370080D03*
X813300Y-500120D03*
X813300Y-471680D03*
D35*
X1156200Y-485900D03*
D39*
X1222700Y-508900D03*
X1222700Y-462900D03*
D35*
X1156200Y-282700D03*
D39*
X1222700Y-305700D03*
X1222700Y-259700D03*
D40*
X1435600Y-625600D03*
D41*
X1461000Y-625600D03*
X1511800Y-625600D03*
X1562600Y-625600D03*
D42*
X1270500Y-429300D03*
X1295900Y-429300D03*
X1321300Y-429300D03*
X1346700Y-429300D03*
X1346700Y-339300D03*
X1321300Y-339300D03*
X1295900Y-339300D03*
X1270500Y-339300D03*
D26*
X1294600Y-270000D03*
X1322600Y-270000D03*
X1462300Y-587500D03*
X1434300Y-587500D03*
D17*
X1299100Y-295400D03*
X1318100Y-295400D03*
D23*
X1346700Y-292200D03*
X1346700Y-273200D03*
D44*
X1270500Y-296920D03*
X1270500Y-268480D03*
D23*
X1232400Y-393800D03*
X1232400Y-374800D03*
D45*
X1139400Y-384300D03*
X1198400Y-384300D03*
X1291800Y-498600D03*
X1350800Y-498600D03*
D43*
X1105400Y-268700D03*
X1105400Y-296700D03*
X1257800Y-484600D03*
X1257800Y-512600D03*
D44*
X1105400Y-398520D03*
X1105400Y-370080D03*
X1105400Y-500120D03*
X1105400Y-471680D03*
D47*
X-581990Y-682750D03*
X-581990Y-670050D03*
X-581990Y-657350D03*
X-581990Y-644650D03*
X-636210Y-644650D03*
X-636210Y-657350D03*
X-636210Y-670050D03*
X-636210Y-682750D03*
D23*
X-667400Y-673200D03*
X-667400Y-654200D03*
D17*
X-1031400Y-308100D03*
X-1050400Y-308100D03*
X-1050400Y-333500D03*
X-1031400Y-333500D03*
D48*
X-1333000Y-803400D03*
D49*
X-1256800Y-765300D03*
D50*
X-1028200Y-892300D03*
X-1028200Y-943100D03*
X-1231400Y-938140D03*
D49*
X-1307600Y-765300D03*
X-1282200Y-765300D03*
X-1218700Y-460500D03*
D50*
X-875800Y-460500D03*
D49*
X-1040900Y-435100D03*
X-1028200Y-422400D03*
X-888500Y-422400D03*
X-888500Y-435100D03*
X-913900Y-422400D03*
X-913900Y-435100D03*
D48*
X-926600Y-866900D03*
X-837700Y-968500D03*
D49*
X-609100Y-917700D03*
X1130800Y-765300D03*
X1105400Y-765300D03*
X1003800Y-739900D03*
X813300Y-765300D03*
X838700Y-765300D03*
X711700Y-739900D03*
X508500Y-765300D03*
X533900Y-765300D03*
X419600Y-739900D03*
X127500Y-739900D03*
X216400Y-765300D03*
X241800Y-765300D03*
X-164600Y-739900D03*
X-75700Y-765300D03*
X-50300Y-765300D03*
X-1028200Y-727200D03*
X-393200Y-612900D03*
X-380500Y-727200D03*
X-342400Y-765300D03*
X1321300Y-447800D03*
X1232400Y-435100D03*
X1207000Y-435100D03*
X1181600Y-435100D03*
X1118100Y-435100D03*
X1067300Y-447800D03*
X1029200Y-447800D03*
X991100Y-447800D03*
X965700Y-447800D03*
X940300Y-435100D03*
X914900Y-435100D03*
X889500Y-435100D03*
X826000Y-435100D03*
X775200Y-447800D03*
X737100Y-447800D03*
X699000Y-447800D03*
X673600Y-447800D03*
X648200Y-435100D03*
X622800Y-435100D03*
X597400Y-435100D03*
X533900Y-435100D03*
X483100Y-447800D03*
X445000Y-447800D03*
X406900Y-447800D03*
X381500Y-447800D03*
X356100Y-435100D03*
X330700Y-435100D03*
X305300Y-435100D03*
X241800Y-435100D03*
X191000Y-447800D03*
X152900Y-447800D03*
X64000Y-435100D03*
X38600Y-435100D03*
X13200Y-435100D03*
X-50300Y-435100D03*
X-101100Y-447800D03*
X-139200Y-447800D03*
X-177300Y-447800D03*
X-202700Y-447800D03*
X-228100Y-435100D03*
X-253500Y-435100D03*
X-367800Y-524000D03*
D51*
X1143500Y-625600D03*
D52*
X-752500Y-422500D03*
X-770000Y-422500D03*
D49*
X-1548900Y-257300D03*
D50*
X-1231400Y-879600D03*
D48*
X-1460000Y-803400D03*
D50*
X-1445896Y-879600D03*
D49*
X-1498100Y-257300D03*
X-1307600Y-460500D03*
D48*
X-977400Y-308100D03*
X-812300Y-816100D03*
D49*
X-1599700Y-879600D03*
X-1548900Y-879600D03*
X-609100Y-790700D03*
X-355100Y-600200D03*
X-1218700Y-485900D03*
X-952000Y-358900D03*
D52*
X-737500Y-672500D03*
X-737500Y-640000D03*
X-742232Y-435000D03*
X-742232Y-380000D03*
X-742500Y-307500D03*
X-950000Y-262500D03*
D49*
X-1320300Y-587500D03*
X-1218700Y-371600D03*
X-1040900Y-358900D03*
X-761500Y-638300D03*
X-1053600Y-625600D03*
X-1040900Y-447800D03*
X742500Y-747500D03*
X742500Y-655000D03*
X742500Y-622032D03*
X675000Y-620000D03*
X600000Y-637500D03*
X412500Y-657500D03*
X412500Y-642500D03*
X367500Y-617500D03*
X345152Y-617652D03*
X77500Y-617500D03*
X52500Y-620000D03*
X-207500Y-615000D03*
X-267500Y-619532D03*
X-367500Y-590000D03*
X-387132Y-563932D03*
X-650000Y-560000D03*
X-748800Y-333500D03*
X-774200Y-333500D03*
X-913900Y-333500D03*
X-1079000Y-397000D03*
X425000Y-527500D03*
X197500Y-586432D03*
X185000Y-644932D03*
X120000Y-644932D03*
X117500Y-625000D03*
X-367500Y-627500D03*
X-382500Y-612500D03*
X-462500Y-607500D03*
X-462500Y-543932D03*
X-1040900Y-511300D03*
X-1040900Y-473200D03*
X1005000Y-537500D03*
X845000Y-537500D03*
X597500Y-542500D03*
X487500Y-537500D03*
X302500Y-573932D03*
X272500Y-570000D03*
X45000Y-570000D03*
X-20000Y-570000D03*
X-237500Y-572500D03*
X1016500Y-752600D03*
X1037500Y-675000D03*
X630000Y-562500D03*
X572500Y-557500D03*
X337500Y-580000D03*
X272500Y-580000D03*
X45000Y-580000D03*
X-20000Y-580000D03*
X-237500Y-582500D03*
X-657500Y-577500D03*
X-774200Y-549400D03*
X-774200Y-473200D03*
X735000Y-532500D03*
X572500Y-567462D03*
X347500Y-580000D03*
X272500Y-560000D03*
X45000Y-560000D03*
X-20000Y-560000D03*
X-237500Y-562500D03*
X1156200Y-638300D03*
X673600Y-630600D03*
X610100Y-638300D03*
X368800Y-638300D03*
X343400Y-638300D03*
X76700Y-638300D03*
X38600Y-638300D03*
X-215400Y-625600D03*
X-258500Y-625600D03*
X-355100Y-625600D03*
X-383000Y-600200D03*
X1181600Y-625600D03*
X711700Y-663700D03*
X572000Y-651000D03*
X368800Y-628100D03*
X343400Y-628100D03*
X76700Y-628100D03*
X38600Y-628100D03*
X-202700Y-625600D03*
X-278900Y-619532D03*
X-342400Y-619532D03*
X-380500Y-590000D03*
X130000Y-625000D03*
X-301294Y-588568D03*
X-305000Y-546432D03*
X-627500Y-527500D03*
X-1294900Y-536700D03*
X-1294900Y-409700D03*
X-1193300Y-409700D03*
X-901200Y-320800D03*
X-1294900Y-612900D03*
X-926600Y-600200D03*
X-901200Y-397000D03*
X-901200Y-447800D03*
X130000Y-537500D03*
X370000Y-592500D03*
X-640000Y-545000D03*
X-1066300Y-498600D03*
D52*
X-100000Y-272500D03*
X-97500Y-927500D03*
X-417500Y-790000D03*
X-417500Y-520000D03*
X-617500Y-502500D03*
D49*
X-1333000Y-727200D03*
D53*
X-1079000Y-714500D03*
X-1193300Y-714500D03*
X-1231400Y-714500D03*
X-1320300Y-689100D03*
D49*
X-1498100Y-333500D03*
X-1434600Y-295400D03*
X-1498100Y-460500D03*
X-1434600Y-384300D03*
X-1498100Y-587500D03*
X-1434600Y-473200D03*
X-1498100Y-714500D03*
X-1409200Y-612900D03*
X-1294900Y-549400D03*
X-1307600Y-384300D03*
X-1269500Y-536700D03*
X-1282200Y-384300D03*
X-1548900Y-384300D03*
D48*
X-1434600Y-803400D03*
X-1269500Y-257300D03*
X-1002800Y-257300D03*
X-1002800Y-308100D03*
X-812300Y-841500D03*
D49*
X-1485400Y-790700D03*
X-609100Y-816100D03*
X-228100Y-600200D03*
X-1548900Y-511300D03*
D48*
X-1409200Y-803400D03*
X-812300Y-866900D03*
D49*
X-1447300Y-968500D03*
X-609100Y-841500D03*
X64000Y-600200D03*
X-1548900Y-638300D03*
D48*
X-1383800Y-803400D03*
D53*
X-1510800Y-968500D03*
D49*
X-609100Y-866900D03*
X356100Y-600200D03*
X-1548900Y-765300D03*
D48*
X-1358400Y-803400D03*
X-837700Y-905000D03*
D49*
X-609100Y-892300D03*
X660900Y-600200D03*
X-1129800Y-803400D03*
X-164600Y-879600D03*
X-190000Y-879600D03*
D53*
X-88400Y-943100D03*
X1537200Y-943100D03*
X1638800Y-930400D03*
D51*
X-240800Y-917700D03*
X-240800Y-714500D03*
D53*
X-139200Y-714500D03*
X-266200Y-841500D03*
X-63000Y-955800D03*
X76700Y-955800D03*
X229100Y-955800D03*
X343400Y-955800D03*
X521200Y-955800D03*
X622800Y-955800D03*
X813300Y-955800D03*
X914900Y-955800D03*
X1105400Y-955800D03*
X1207000Y-955800D03*
X2119527Y-346200D03*
X-202700Y-701800D03*
X-355100Y-714500D03*
D49*
X102100Y-879600D03*
X127500Y-879600D03*
D53*
X168100Y-943100D03*
X1575300Y-905000D03*
X1930900Y-790700D03*
X1930900Y-739900D03*
D51*
X51300Y-917700D03*
X51300Y-714500D03*
D53*
X152900Y-714500D03*
X25900Y-841500D03*
D49*
X140200Y-930400D03*
X330700Y-778000D03*
X356100Y-778000D03*
X622800Y-778000D03*
X648200Y-778000D03*
X914900Y-778000D03*
X940300Y-778000D03*
X1207000Y-778000D03*
X1232400Y-778000D03*
X1575300Y-892300D03*
X1918200Y-790700D03*
X1918200Y-739900D03*
X1918200Y-625600D03*
X1372100Y-930400D03*
D53*
X89400Y-701800D03*
X-63000Y-714500D03*
D49*
X394200Y-879600D03*
X419600Y-879600D03*
X445000Y-879600D03*
X622800Y-765300D03*
X648200Y-765300D03*
X914900Y-765300D03*
X940300Y-765300D03*
X1207000Y-765300D03*
X1232400Y-765300D03*
X1588000Y-879600D03*
X1867400Y-739900D03*
X1867400Y-714500D03*
X1867400Y-574800D03*
X1867400Y-524000D03*
X1842000Y-371600D03*
D51*
X343400Y-917700D03*
X343400Y-714500D03*
D53*
X445000Y-714500D03*
X318000Y-841500D03*
D49*
X432300Y-917700D03*
X495800Y-917700D03*
X495800Y-892300D03*
X622800Y-752600D03*
X648200Y-752600D03*
X914900Y-752600D03*
X940300Y-752600D03*
X1207000Y-752600D03*
X1232400Y-752600D03*
X1372100Y-905000D03*
X1613400Y-866900D03*
D53*
X381500Y-701800D03*
X229100Y-714500D03*
D49*
X711700Y-879600D03*
X686300Y-879600D03*
X749800Y-892300D03*
X1422900Y-689100D03*
X1613400Y-689100D03*
X1664200Y-689100D03*
X1803900Y-689100D03*
X1803900Y-638300D03*
D51*
X635500Y-917700D03*
X635500Y-714500D03*
D53*
X737100Y-714500D03*
X610100Y-841500D03*
D49*
X737100Y-879600D03*
X1461000Y-701800D03*
X1588000Y-701800D03*
D53*
X673600Y-701800D03*
X521200Y-714500D03*
D49*
X978400Y-879600D03*
X1003800Y-879600D03*
X1041900Y-892300D03*
X1384800Y-689100D03*
X1410200Y-308100D03*
D51*
X927600Y-714500D03*
X927600Y-917700D03*
D53*
X902200Y-841500D03*
X1029200Y-714500D03*
D49*
X1029200Y-879600D03*
X1397500Y-676400D03*
X1537200Y-663700D03*
X1537200Y-574800D03*
X1537200Y-524000D03*
X813300Y-714500D03*
X965700Y-701800D03*
X1295900Y-879600D03*
X1270500Y-879600D03*
X1334000Y-892300D03*
X1384800Y-892300D03*
X1499100Y-714500D03*
X1486400Y-574800D03*
D51*
X1219700Y-917700D03*
X1219700Y-714500D03*
D49*
X1194300Y-841500D03*
X1321300Y-879600D03*
X1397500Y-879600D03*
X1511800Y-714500D03*
X1105400Y-714500D03*
X1257800Y-701800D03*
X-151900Y-320800D03*
X-190000Y-320800D03*
X-151900Y-270000D03*
D51*
X-240800Y-485900D03*
X-240800Y-282700D03*
D49*
X-126500Y-244600D03*
D53*
X-202700Y-498600D03*
X-355100Y-485900D03*
D49*
X102100Y-320800D03*
X140200Y-320800D03*
X140200Y-270000D03*
D51*
X51300Y-485900D03*
X51300Y-282700D03*
D49*
X162700Y-311000D03*
D53*
X89400Y-498600D03*
X-63000Y-485900D03*
D49*
X432300Y-320800D03*
X381500Y-320800D03*
X409800Y-311000D03*
D51*
X343400Y-485900D03*
X343400Y-282700D03*
D49*
X451350Y-314450D03*
X1461000Y-409700D03*
X1499100Y-358900D03*
X1499100Y-320800D03*
X1524500Y-320800D03*
X1651500Y-333500D03*
D53*
X381500Y-498600D03*
X229100Y-485900D03*
D49*
X673600Y-320800D03*
X737100Y-320800D03*
X714600Y-311000D03*
X1168900Y-562100D03*
X1384800Y-638300D03*
D51*
X635500Y-485900D03*
X635500Y-282700D03*
D49*
X760900Y-322400D03*
X1384800Y-625600D03*
X1181600Y-549400D03*
D53*
X673600Y-498600D03*
X521200Y-485900D03*
D49*
X965700Y-320800D03*
X1029200Y-320800D03*
X994000Y-311000D03*
X1473700Y-282700D03*
X1537200Y-333500D03*
D51*
X927600Y-282700D03*
X927600Y-485900D03*
D49*
X1053000Y-322400D03*
X1410200Y-346200D03*
D53*
X813300Y-485900D03*
X965700Y-498600D03*
D49*
X1321300Y-320800D03*
X1257800Y-320800D03*
X1284800Y-309700D03*
X1334000Y-536700D03*
X1334000Y-600200D03*
D51*
X1219700Y-282700D03*
X1219700Y-485900D03*
D49*
X1346700Y-320800D03*
X1486400Y-612900D03*
X1384800Y-612900D03*
X1372100Y-320800D03*
D53*
X1257800Y-498600D03*
X1105400Y-485900D03*
D52*
X-650000Y-670000D03*
X-1015000Y-322500D03*
M02*
