M48
;GenerationSoftware,Autodesk,EAGLE,9.6.2*%
;CreationDate,2026-02-04T14:52:40Z*%
FMAT,2
ICI,OFF
METRIC,TZ,000.000
T12C0.350
T11C0.400
T10C0.450
T9C0.500
T8C0.800
T7C0.813
T6C1.000
T5C1.016
T4C1.100
T3C1.118
T2C1.400
T1C1.800
%
G90
M71
T1
X-146040Y-91770
X-151040Y-91770
X-95240Y-91770
X-100240Y-91770
T2
X-88850Y-93040
X205790Y-72720
X160070Y-95580
X160070Y-72720
X205790Y-95580
X-78690Y-93040
X-88850Y-77800
X-78690Y-77800
T3
X-138380Y-95580
X-67260Y-86690
X-67260Y-84150
X-67260Y-81610
X-67260Y-79070
X-125680Y-95580
X-72340Y-91770
X-72340Y-79070
X-72340Y-89230
X-130760Y-95580
X-72340Y-86690
X-72340Y-84150
X-133300Y-95580
X-72340Y-81610
X-128220Y-95580
X-135840Y-95580
X-67260Y-91770
X-67260Y-89230
T4
X-143040Y-96770
X-154040Y-96770
X-103240Y-96770
X-92240Y-96770
T5
X-82500Y-39700
X-82500Y-42240
X-82500Y-44780
X-82500Y-47320
X-82500Y-49860
X-82500Y-52400
X-82500Y-54940
X-82500Y-57480
X-82500Y-60020
X-82500Y-62560
X-82500Y-65100
X-82500Y-67640
X-82500Y-70180
X-82500Y-72720
X-79960Y-27000
X-79960Y-29540
X-79960Y-34620
X-79960Y-37160
X-79960Y-39700
X-79960Y-42240
X-79960Y-44780
X-79960Y-47320
X-79960Y-49860
X-79960Y-52400
X-79960Y-54940
X-79960Y-57480
X-79960Y-60020
X-79960Y-62560
X-79960Y-65100
X-79960Y-67640
X-79960Y-70180
X-79960Y-72720
X-110440Y-72720
X-110440Y-70180
X-110440Y-67640
X-110440Y-65100
X-110440Y-62560
X-110440Y-60020
X-110440Y-57480
X-110440Y-54940
X-110440Y-52400
X-110440Y-49860
X-110440Y-47320
X-110440Y-44780
X-110440Y-42240
X-110440Y-39700
X-110440Y-37160
X-110440Y-34620
X-110440Y-32080
X-110440Y-29540
X-110440Y-27000
X-112980Y-72720
X-112980Y-70180
X-112980Y-67640
X-112980Y-65100
X-112980Y-62560
X-112980Y-60020
X-112980Y-57480
X-112980Y-54940
X-112980Y-52400
X-112980Y-49860
X-112980Y-47320
X-112980Y-44780
X-112980Y-42240
X-112980Y-39700
X-112980Y-37160
X-112980Y-34620
X-112980Y-32080
X-112980Y-29540
X-72340Y-47320
X-112980Y-27000
X-115520Y-72720
X-115520Y-67640
X-115520Y-65100
X-115520Y-62560
X-115520Y-60020
X-115520Y-57480
X-115520Y-54940
X-115520Y-52400
X-115520Y-49860
X-115520Y-47320
X-115520Y-44780
X-115520Y-42240
X-79960Y-32080
X-67260Y-27000
X-67260Y-29540
X-67260Y-32080
X-67260Y-34620
X-67260Y-37160
X-67260Y-39700
X-67260Y-42240
X-67260Y-44780
X-67260Y-47320
X-67260Y-49860
X-67260Y-52400
X-67260Y-54940
X-72340Y-27000
X-72340Y-29540
X-72340Y-32080
X-72340Y-34620
X-72340Y-37160
X-72340Y-39700
X-72340Y-42240
X-72340Y-44780
X-72340Y-49860
X-72340Y-52400
X-72340Y-54940
X-157430Y-95580
X-159970Y-95580
X-82500Y-29540
X-115520Y-70180
X-82500Y-32080
X-82500Y-34620
X-115520Y-27000
X-82500Y-37160
X-85040Y-27000
X-85040Y-29540
X-85040Y-32080
X-85040Y-34620
X-85040Y-37160
X-85040Y-39700
X-85040Y-42240
X-85040Y-44780
X-85040Y-47320
X-85040Y-49860
X-85040Y-52400
X-85040Y-54940
X-85040Y-57480
X-85040Y-60020
X-85040Y-62560
X-85040Y-65100
X-85040Y-67640
X-85040Y-70180
X-85040Y-72720
X-115520Y-39700
X-115520Y-37160
X-115520Y-34620
X-115520Y-32080
X-115520Y-29540
X-82500Y-27000
T6
X143560Y-62560
X146100Y-62560
X156260Y-30810
X158800Y-30810
X177850Y-53670
X177850Y-58750
X177850Y-63830
X177850Y-66370
X177850Y-29540
X177850Y-34620
X177850Y-39700
X177850Y-42240
X193090Y-63830
X151180Y-38430
X156260Y-38430
X193090Y-58750
X193090Y-53670
X151180Y-62560
X156260Y-62560
X-144590Y-87960
X-123140Y-87960
X210870Y-24460
X210870Y-96850
X-163780Y-96850
X-87580Y-46050
X-163780Y-24460
X-123140Y-93814
X-102820Y-94310
X-102820Y-89230
X193090Y-51130
X200710Y-53670
X170230Y-27000
X200710Y-58750
X170230Y-29540
X200710Y-29540
X200710Y-34620
X200710Y-39700
X200710Y-42240
X170230Y-34620
X170230Y-39700
X170230Y-51130
X170230Y-53670
X170230Y-58750
X170230Y-63830
X200710Y-63830
X200710Y-66370
X193090Y-39700
X193090Y-34620
X193090Y-29540
X193090Y-27000
X146100Y-54940
X151180Y-54940
X156260Y-54940
X158800Y-54940
X146100Y-30810
X151180Y-30810
X143560Y-38430
X146100Y-38430
T7
X-101550Y-77800
X-93930Y-77800
T8
X-133300Y-80340
X-97740Y-30810
X-81230Y-81610
X-126950Y-25730
X-100280Y-25730
X-100280Y-30810
X-81230Y-84150
X-140920Y-80340
X-81230Y-86690
X-138380Y-80340
X-135840Y-80340
X-92660Y-86690
X-83770Y-96850
X-83770Y-90500
X-146000Y-80340
X-143460Y-80340
T9
X92760Y-91770
X-24080Y-48590
X34340Y-71450
X34340Y-91770
X-24080Y-28270
X34340Y-28270
X121970Y-48590
X5130Y-91770
X-24080Y-71450
X121970Y-91770
X92760Y-71450
X63550Y-48590
X121970Y-71450
X63550Y-91770
X63550Y-28270
X5130Y-48590
X5130Y-28270
X63550Y-71450
X-24080Y-91770
X121970Y-28270
X5130Y-71450
X92760Y-28270
X92760Y-48590
X34340Y-48590
X114350Y-62560
T10
X-74223Y-38000
X-73750Y-67250
X-74250Y-30750
X-73750Y-64000
X-101500Y-32250
X-65000Y-67000
X-74223Y-43500
X-75250Y-42250
X-77000Y-42250
X-95000Y-26250
X-61750Y-50250
X-41750Y-52000
X-41750Y-79000
X-9750Y-92750
X-10000Y-27250
T11
X81330Y-48590
X8940Y-49860
X-6300Y-48590
X96570Y-49860
X67360Y-49860
X52120Y-48590
X22910Y-71450
X38150Y-70180
X125780Y-49860
X110540Y-48590
X38150Y-49860
X22910Y-48590
X81330Y-95580
X73710Y-71450
X8940Y-70180
X2590Y-84150
X15290Y-71450
X61010Y-84150
X31800Y-84150
X193090Y-73990
X193090Y-79070
X157530Y-90500
X16810Y-94310
X-35510Y-71450
X-20270Y-70180
X211953Y-34620
X120700Y-95580
X110540Y-95580
X91490Y-95580
X62280Y-95580
X67360Y-70180
X34340Y-95580
X22910Y-95580
X7670Y-95580
X-6300Y-95580
X-26620Y-84150
X-13920Y-71450
X44500Y-71450
X-6300Y-71450
X163880Y-93040
X153720Y-94310
X52120Y-95580
X-151080Y-96850
X-132030Y-68910
X-123140Y-71450
X-119330Y-71450
X-107900Y-71450
X52120Y-71450
X-20270Y-49860
X-35510Y-48590
X90220Y-84150
X102920Y-71450
X-8840Y-94310
T12
X69900Y-44780
X67360Y-44780
X64820Y-43510
X62280Y-43510
X59740Y-43510
X53390Y-43510
X48310Y-44780
X44500Y-44780
X38150Y-44780
X35610Y-43510
X33070Y-43510
X30530Y-43510
X24180Y-43510
X19100Y-44780
X15290Y-44780
X6400Y-43510
X3860Y-43510
X1320Y-43510
X-5030Y-43510
X-10110Y-44780
X-13920Y-44780
X-17730Y-44780
X-20270Y-44780
X-22810Y-43510
X-25350Y-43510
X-36780Y-52400
X-154890Y-25730
X-149810Y-25730
X-130760Y-46050
X-159970Y-87960
X-154890Y-87960
X-60910Y-79070
X-35510Y-60020
X-121870Y-48590
X-95200Y-35890
X166420Y-68910
X180390Y-68910
X180390Y-63830
X73710Y-87960
X146100Y-70180
X158800Y-70180
X97840Y-87960
X100380Y-87960
X104190Y-89230
X138480Y-68910
X141020Y-30810
X40690Y-44780
X102920Y-87960
X139750Y-67640
X153720Y-66370
X153720Y-57480
X153720Y-52400
X81330Y-71450
X96570Y-70180
X129590Y-87960
X127050Y-87960
X133400Y-89230
X138480Y-89230
X149910Y-71450
X148640Y-57480
X119430Y-84150
X132130Y-87960
X139750Y-87960
X151180Y-71450
X110540Y-71450
X125780Y-70180
X-15190Y-32080
X-19000Y-32080
X-15190Y-27000
X-12650Y-24460
X10210Y-32080
X14020Y-32080
X14020Y-27000
X16270Y-31100
X43230Y-32080
X38150Y-32080
X40980Y-31100
X45135Y-31445
X146100Y-40970
X149910Y-35890
X149910Y-32080
X152450Y-32080
X165150Y-33350
X73710Y-32080
X71460Y-31100
X116890Y-56210
X138480Y-63830
X76090Y-32240
X138480Y-62560
X118160Y-54940
X96570Y-32080
X102920Y-32080
X99400Y-31100
X147370Y-28270
X153720Y-33350
X105300Y-32240
X141020Y-34620
X132130Y-32080
X125780Y-32080
X128480Y-30970
X133400Y-53670
X133400Y-60020
X134670Y-32080
X148640Y-61290
X138480Y-61290
X137210Y-32080
X142290Y-68910
X74980Y-89230
X68630Y-87960
X71170Y-87960
X161340Y-86690
X137210Y-90500
X123240Y-75260
X120700Y-75260
X94030Y-75260
X91490Y-75260
X64820Y-75260
X62280Y-75260
X49580Y-89230
X-125680Y-76530
X43230Y-91770
X-130760Y-76530
X-128220Y-76530
X-121870Y-46050
X-104090Y-43510
X184200Y-37160
X186740Y-52400
X186740Y-57480
X186740Y-71450
X186740Y-73990
X158800Y-87960
X123240Y-76530
X120700Y-76530
X94030Y-76530
X91490Y-76530
X64820Y-76530
X62280Y-76530
X44500Y-87960
X41960Y-87960
X39420Y-87960
X-102820Y-42240
X-88850Y-42240
X137210Y-93040
X191820Y-62560
X191820Y-73990
X191820Y-79070
X157530Y-89230
X123240Y-77800
X120700Y-77800
X94030Y-77800
X91490Y-77800
X64820Y-77800
X62280Y-77800
X35610Y-77800
X33070Y-77800
X14020Y-93040
X-88850Y-43510
X-91390Y-42240
X-91390Y-43510
X-60910Y-91770
X113080Y-76530
X110540Y-76530
X100380Y-73990
X81330Y-76530
X12750Y-87960
X10210Y-87960
X83870Y-76530
X71170Y-73990
X50850Y-76530
X53390Y-76530
X41960Y-73990
X12750Y-73990
X49580Y-91770
X21640Y-76530
X24180Y-76530
X-16460Y-73990
X-7570Y-76530
X-5030Y-76530
X-102820Y-72720
X-39320Y-61290
X-38050Y-72720
X-34240Y-76530
X132130Y-44780
X123240Y-43510
X120700Y-43510
X118160Y-43510
X-19000Y-87960
X-16460Y-87960
X-112980Y-80340
X66090Y-60020
X-60910Y-89230
X-154890Y-76530
X35610Y-60020
X-60910Y-86690
X111810Y-43510
X-154890Y-63830
X6400Y-60020
X-60910Y-84150
X-144730Y-96850
X-154890Y-51130
X-22810Y-60020
X-60910Y-81610
X-148540Y-79070
X-154890Y-38430
X-128220Y-38430
X-126950Y-53670
X-130760Y-38430
X-129490Y-54940
X-140920Y-61290
X-149810Y-71450
X-143460Y-47320
X-149810Y-58750
X-143460Y-38430
X-149810Y-46050
X-143460Y-29540
X-149810Y-33350
X106730Y-44780
X102920Y-44780
X99110Y-44780
X96570Y-44780
X-133300Y-72720
X94030Y-43510
X91490Y-43510
X88950Y-43510
X82600Y-43510
X77520Y-44780
X-106630Y-49860
X-64000Y-54500
X37000Y-59250
X13000Y-53750
X-90120Y-44780
X-90120Y-39700
X-92660Y-60020
X-129490Y-61290
X-90120Y-32080
X-119330Y-40970
X-129490Y-40970
X-129490Y-53670
X-62750Y-52750
X-30500Y-54643
X-30129Y-58857
X13000Y-62500
X-38050Y-59000
X-34240Y-61953
X-27890Y-61953
X-20270Y-62560
X3860Y-62810
X161340Y-68910
X7670Y-62810
X34340Y-62810
X36880Y-62810
X57200Y-65100
X71170Y-66370
X118160Y-62560
X-38300Y-60020
X-35510Y-62560
X-25850Y-62560
X-21540Y-62560
X3860Y-63830
X7670Y-63830
X34340Y-63830
X36880Y-63830
X61010Y-63830
X67360Y-63060
X115620Y-63830
X-23750Y-56250
X-2000Y-56000
X4500Y-56000
X27250Y-56000
X34750Y-58000
X57250Y-56746
X73500Y-53250
X-77420Y-47320
X-77420Y-54940
X-65750Y-57750
X-23750Y-58250
X-2000Y-58000
X4500Y-58000
X67360Y-32080
X33750Y-58000
X57250Y-55750
X63000Y-56250
X103750Y-67500
X101650Y-75260
X-23750Y-57250
X-2000Y-57000
X4500Y-57000
X27250Y-57000
X30250Y-57393
X48750Y-53750
X59750Y-54250
X84500Y-53750
X100500Y-53750
X-104090Y-47320
X-104090Y-51130
X-46250Y-54393
X-46250Y-60750
X-38250Y-61250
X-36750Y-62750
X11750Y-62500
X12000Y-64493
X18500Y-64493
X19750Y-58643
X42500Y-52750
X-107900Y-39700
X-91390Y-33350
X-77420Y-33350
X-74880Y-33350
X-65000Y-56000
X-38713Y-56393
X-36750Y-59000
X-26750Y-61953
X-20750Y-61500
X5250Y-62000
X7750Y-61750
X34515Y-61765
X36750Y-61750
X41250Y-64250
X41250Y-65750
X60000Y-63750
X67500Y-62000
X74250Y-62203
X74250Y-65500
X74250Y-74750
X-104090Y-44780
X-105360Y-62560
X-76150Y-63830
X-104090Y-35890
X-121870Y-37160
X-132030Y-58750
X73710Y-44780
X27250Y-58000
M30