G04 EAGLE Gerber RS-274X export*
G75*
%MOMM*%
%FSLAX34Y34*%
%LPD*%
%INSoldermask Bottom*%
%IPPOS*%
%AMOC8*
5,1,8,0,0,1.08239X$1,22.5*%
G01*
%ADD10C,1.203200*%
%ADD11P,2.309387X8X22.500000*%
%ADD12P,2.309387X8X202.500000*%
%ADD13P,2.309387X8X112.500000*%
%ADD14P,2.309387X8X292.500000*%
%ADD15C,2.743200*%
%ADD16C,2.082800*%
%ADD17C,2.903200*%
%ADD18C,1.853200*%
%ADD19C,1.727200*%
%ADD20C,1.524000*%
%ADD21C,2.082800*%
%ADD22R,1.711200X1.711200*%
%ADD23C,1.711200*%
%ADD24C,1.409600*%
%ADD25C,0.959600*%
%ADD26C,1.703200*%
%ADD27C,1.109600*%
%ADD28C,1.059600*%
%ADD29C,1.009600*%


D10*
X2108700Y-244600D03*
X2108700Y-968500D03*
X-1637800Y-968500D03*
X-1637800Y-244600D03*
D11*
X-1155200Y-270000D03*
X-1155200Y-295400D03*
X-1155200Y-320800D03*
X-1155200Y-346200D03*
X-1155200Y-371600D03*
X-1155200Y-397000D03*
X-1155200Y-422400D03*
X-1155200Y-447800D03*
D12*
X-1155200Y-473200D03*
X-1155200Y-498600D03*
X-1155200Y-524000D03*
X-1155200Y-549400D03*
X-1155200Y-574800D03*
X-1155200Y-600200D03*
X-1155200Y-625600D03*
X-1155200Y-651000D03*
X-1155200Y-676400D03*
X-1155200Y-701800D03*
X-1155200Y-727200D03*
D11*
X-1129800Y-270000D03*
X-1129800Y-295400D03*
X-1129800Y-320800D03*
X-1129800Y-346200D03*
X-1129800Y-371600D03*
X-1129800Y-397000D03*
X-1129800Y-422400D03*
X-1129800Y-447800D03*
X-1129800Y-473200D03*
X-1129800Y-498600D03*
X-1129800Y-524000D03*
X-1129800Y-549400D03*
X-1129800Y-574800D03*
X-1129800Y-600200D03*
X-1129800Y-625600D03*
X-1129800Y-651000D03*
X-1129800Y-676400D03*
X-1129800Y-701800D03*
D12*
X-1129800Y-727200D03*
D11*
X-1104400Y-270000D03*
X-1104400Y-295400D03*
X-1104400Y-320800D03*
X-1104400Y-346200D03*
X-1104400Y-371600D03*
X-1104400Y-397000D03*
D12*
X-1104400Y-422400D03*
D11*
X-1104400Y-447800D03*
X-1104400Y-473200D03*
X-1104400Y-498600D03*
X-1104400Y-524000D03*
X-1104400Y-549400D03*
X-1104400Y-574800D03*
X-1104400Y-600200D03*
X-1104400Y-625600D03*
X-1104400Y-651000D03*
X-1104400Y-676400D03*
X-1104400Y-701800D03*
X-1104400Y-727200D03*
D13*
X-799600Y-727200D03*
X-799600Y-701800D03*
X-799600Y-676400D03*
X-799600Y-651000D03*
X-799600Y-625600D03*
X-799600Y-600200D03*
X-799600Y-574800D03*
X-799600Y-549400D03*
X-799600Y-524000D03*
X-799600Y-498600D03*
X-799600Y-473200D03*
X-799600Y-447800D03*
X-799600Y-422400D03*
X-799600Y-397000D03*
X-799600Y-371600D03*
X-799600Y-346200D03*
X-799600Y-320800D03*
X-799600Y-295400D03*
X-799600Y-270000D03*
D14*
X-825000Y-727200D03*
D13*
X-825000Y-701800D03*
X-825000Y-676400D03*
X-825000Y-651000D03*
X-825000Y-625600D03*
X-825000Y-600200D03*
X-825000Y-574800D03*
X-825000Y-549400D03*
X-825000Y-524000D03*
X-825000Y-498600D03*
X-825000Y-473200D03*
X-825000Y-447800D03*
X-825000Y-422400D03*
X-825000Y-397000D03*
X-825000Y-371600D03*
X-825000Y-346200D03*
X-825000Y-320800D03*
D12*
X-825000Y-295400D03*
X-825000Y-270000D03*
D13*
X-850400Y-727200D03*
X-850400Y-701800D03*
X-850400Y-676400D03*
X-850400Y-651000D03*
X-850400Y-625600D03*
X-850400Y-600200D03*
X-850400Y-574800D03*
X-850400Y-549400D03*
X-850400Y-524000D03*
X-850400Y-498600D03*
X-850400Y-473200D03*
X-850400Y-447800D03*
X-850400Y-422400D03*
X-850400Y-397000D03*
X-850400Y-371600D03*
X-850400Y-346200D03*
D12*
X-850400Y-320800D03*
X-850400Y-295400D03*
X-850400Y-270000D03*
D15*
X-888500Y-917700D02*
X-888500Y-943100D01*
X-786900Y-790700D02*
X-786900Y-765300D01*
X-888500Y-765300D02*
X-888500Y-790700D01*
X-786900Y-917700D02*
X-786900Y-943100D01*
D16*
X-1256800Y-946402D02*
X-1256800Y-965198D01*
X-1282200Y-965198D02*
X-1282200Y-946402D01*
X-1307600Y-946402D02*
X-1307600Y-965198D01*
X-1333000Y-965198D02*
X-1333000Y-946402D01*
X-1358400Y-946402D02*
X-1358400Y-965198D01*
X-1383800Y-965198D02*
X-1383800Y-946402D01*
D17*
X-1460400Y-917700D03*
X-1510400Y-917700D03*
D18*
X-1430400Y-967700D03*
X-1540400Y-967700D03*
D17*
X-952400Y-917700D03*
X-1002400Y-917700D03*
D18*
X-922400Y-967700D03*
X-1032400Y-967700D03*
D19*
X-1599700Y-963420D02*
X-1599700Y-948180D01*
X-1574300Y-948180D02*
X-1574300Y-963420D01*
D20*
X-945904Y-778000D02*
X-932696Y-778000D01*
X-1008896Y-778000D02*
X-1022104Y-778000D01*
D21*
X-723400Y-549400D03*
X-723400Y-524000D03*
X-723400Y-498600D03*
X-723400Y-473200D03*
X-723400Y-447800D03*
X-723400Y-422400D03*
X-723400Y-397000D03*
X-723400Y-371600D03*
X-723400Y-346200D03*
X-723400Y-320800D03*
X-723400Y-295400D03*
X-723400Y-270000D03*
D16*
X-714002Y-917700D02*
X-732798Y-917700D01*
X-732798Y-892300D02*
X-714002Y-892300D01*
X-714002Y-866900D02*
X-732798Y-866900D01*
X-732798Y-841500D02*
X-714002Y-841500D01*
X-714002Y-816100D02*
X-732798Y-816100D01*
X-732798Y-790700D02*
X-714002Y-790700D01*
D21*
X-672600Y-549400D03*
X-672600Y-524000D03*
X-672600Y-498600D03*
X-672600Y-473200D03*
X-672600Y-447800D03*
X-672600Y-422400D03*
X-672600Y-397000D03*
X-672600Y-371600D03*
X-672600Y-346200D03*
X-672600Y-320800D03*
X-672600Y-295400D03*
X-672600Y-270000D03*
D16*
X-663202Y-917700D02*
X-681998Y-917700D01*
X-681998Y-892300D02*
X-663202Y-892300D01*
X-663202Y-866900D02*
X-681998Y-866900D01*
X-681998Y-841500D02*
X-663202Y-841500D01*
X-663202Y-816100D02*
X-681998Y-816100D01*
X-681998Y-790700D02*
X-663202Y-790700D01*
D22*
X2007100Y-422400D03*
D23*
X2007100Y-397000D03*
X2007100Y-346200D03*
X2007100Y-295400D03*
D15*
X1613400Y-727200D02*
X1588000Y-727200D01*
X2045200Y-955800D02*
X2070600Y-955800D01*
X2070600Y-727200D02*
X2045200Y-727200D01*
X1613400Y-955800D02*
X1588000Y-955800D01*
D22*
X1930900Y-511300D03*
D23*
X1930900Y-536700D03*
X1930900Y-587500D03*
X1930900Y-638300D03*
D22*
X1778500Y-422400D03*
D23*
X1778500Y-397000D03*
X1778500Y-346200D03*
X1778500Y-295400D03*
D22*
X1778500Y-663700D03*
D23*
X1778500Y-638300D03*
X1778500Y-587500D03*
X1778500Y-536700D03*
D22*
X1588000Y-308100D03*
D23*
X1562600Y-308100D03*
X1511800Y-308100D03*
X1461000Y-308100D03*
D22*
X1588000Y-549400D03*
D23*
X1562600Y-549400D03*
X1511800Y-549400D03*
X1461000Y-549400D03*
D22*
X1930900Y-270000D03*
D23*
X1930900Y-295400D03*
X1930900Y-346200D03*
X1930900Y-397000D03*
D22*
X2007100Y-663700D03*
D23*
X2007100Y-638300D03*
X2007100Y-587500D03*
X2007100Y-536700D03*
D22*
X1702300Y-270000D03*
D23*
X1702300Y-295400D03*
X1702300Y-346200D03*
X1702300Y-397000D03*
D22*
X1702300Y-511300D03*
D23*
X1702300Y-536700D03*
X1702300Y-587500D03*
X1702300Y-638300D03*
D22*
X1435600Y-384300D03*
D23*
X1461000Y-384300D03*
X1511800Y-384300D03*
X1562600Y-384300D03*
D22*
X1435600Y-625600D03*
D23*
X1461000Y-625600D03*
X1511800Y-625600D03*
X1562600Y-625600D03*
D24*
X-1333000Y-803400D03*
D25*
X-1256800Y-765300D03*
D26*
X-1028200Y-892300D03*
X-1028200Y-943100D03*
X-1231400Y-938140D03*
D25*
X-1307600Y-765300D03*
X-1282200Y-765300D03*
X-1218700Y-460500D03*
D26*
X-875800Y-460500D03*
D25*
X-1040900Y-435100D03*
X-1028200Y-422400D03*
X-888500Y-422400D03*
X-888500Y-435100D03*
X-913900Y-422400D03*
X-913900Y-435100D03*
D24*
X-926600Y-866900D03*
X-837700Y-968500D03*
D25*
X-609100Y-917700D03*
X1130800Y-765300D03*
X1105400Y-765300D03*
X1003800Y-739900D03*
X813300Y-765300D03*
X838700Y-765300D03*
X711700Y-739900D03*
X508500Y-765300D03*
X533900Y-765300D03*
X419600Y-739900D03*
X127500Y-739900D03*
X216400Y-765300D03*
X241800Y-765300D03*
X-164600Y-739900D03*
X-75700Y-765300D03*
X-50300Y-765300D03*
X-1028200Y-727200D03*
X-393200Y-612900D03*
X-380500Y-727200D03*
X-342400Y-765300D03*
X1321300Y-447800D03*
X1232400Y-435100D03*
X1207000Y-435100D03*
X1181600Y-435100D03*
X1118100Y-435100D03*
X1067300Y-447800D03*
X1029200Y-447800D03*
X991100Y-447800D03*
X965700Y-447800D03*
X940300Y-435100D03*
X914900Y-435100D03*
X889500Y-435100D03*
X826000Y-435100D03*
X775200Y-447800D03*
X737100Y-447800D03*
X699000Y-447800D03*
X673600Y-447800D03*
X648200Y-435100D03*
X622800Y-435100D03*
X597400Y-435100D03*
X533900Y-435100D03*
X483100Y-447800D03*
X445000Y-447800D03*
X406900Y-447800D03*
X381500Y-447800D03*
X356100Y-435100D03*
X330700Y-435100D03*
X305300Y-435100D03*
X241800Y-435100D03*
X191000Y-447800D03*
X152900Y-447800D03*
X64000Y-435100D03*
X38600Y-435100D03*
X13200Y-435100D03*
X-50300Y-435100D03*
X-101100Y-447800D03*
X-139200Y-447800D03*
X-177300Y-447800D03*
X-202700Y-447800D03*
X-228100Y-435100D03*
X-253500Y-435100D03*
X-367800Y-524000D03*
D27*
X1143500Y-625600D03*
D28*
X-752500Y-422500D03*
X-770000Y-422500D03*
D25*
X-1548900Y-257300D03*
D26*
X-1231400Y-879600D03*
D24*
X-1460000Y-803400D03*
D26*
X-1445896Y-879600D03*
D25*
X-1498100Y-257300D03*
X-1307600Y-460500D03*
D24*
X-977400Y-308100D03*
X-812300Y-816100D03*
D25*
X-1599700Y-879600D03*
X-1548900Y-879600D03*
X-609100Y-790700D03*
X-355100Y-600200D03*
X-1218700Y-485900D03*
X-952000Y-358900D03*
D28*
X-737500Y-672500D03*
X-737500Y-640000D03*
X-742232Y-435000D03*
X-742232Y-380000D03*
X-742500Y-307500D03*
X-950000Y-262500D03*
D25*
X-1320300Y-587500D03*
X-1218700Y-371600D03*
X-1040900Y-358900D03*
X-761500Y-638300D03*
X-1053600Y-625600D03*
X-1040900Y-447800D03*
X742500Y-747500D03*
X742500Y-655000D03*
X742500Y-622032D03*
X675000Y-620000D03*
X600000Y-637500D03*
X412500Y-657500D03*
X412500Y-642500D03*
X367500Y-617500D03*
X345152Y-617652D03*
X77500Y-617500D03*
X52500Y-620000D03*
X-207500Y-615000D03*
X-267500Y-619532D03*
X-367500Y-590000D03*
X-387132Y-563932D03*
X-650000Y-560000D03*
X-748800Y-333500D03*
X-774200Y-333500D03*
X-913900Y-333500D03*
X-1079000Y-397000D03*
X425000Y-527500D03*
X197500Y-586432D03*
X185000Y-644932D03*
X120000Y-644932D03*
X117500Y-625000D03*
X-367500Y-627500D03*
X-382500Y-612500D03*
X-462500Y-607500D03*
X-462500Y-543932D03*
X-1040900Y-511300D03*
X-1040900Y-473200D03*
X1005000Y-537500D03*
X845000Y-537500D03*
X597500Y-542500D03*
X487500Y-537500D03*
X302500Y-573932D03*
X272500Y-570000D03*
X45000Y-570000D03*
X-20000Y-570000D03*
X-237500Y-572500D03*
X1016500Y-752600D03*
X1037500Y-675000D03*
X630000Y-562500D03*
X572500Y-557500D03*
X337500Y-580000D03*
X272500Y-580000D03*
X45000Y-580000D03*
X-20000Y-580000D03*
X-237500Y-582500D03*
X-657500Y-577500D03*
X-774200Y-549400D03*
X-774200Y-473200D03*
X735000Y-532500D03*
X572500Y-567462D03*
X347500Y-580000D03*
X272500Y-560000D03*
X45000Y-560000D03*
X-20000Y-560000D03*
X-237500Y-562500D03*
X1156200Y-638300D03*
X673600Y-630600D03*
X610100Y-638300D03*
X368800Y-638300D03*
X343400Y-638300D03*
X76700Y-638300D03*
X38600Y-638300D03*
X-215400Y-625600D03*
X-258500Y-625600D03*
X-355100Y-625600D03*
X-383000Y-600200D03*
X1181600Y-625600D03*
X711700Y-663700D03*
X572000Y-651000D03*
X368800Y-628100D03*
X343400Y-628100D03*
X76700Y-628100D03*
X38600Y-628100D03*
X-202700Y-625600D03*
X-278900Y-619532D03*
X-342400Y-619532D03*
X-380500Y-590000D03*
X130000Y-625000D03*
X-301294Y-588568D03*
X-305000Y-546432D03*
X-627500Y-527500D03*
X-1294900Y-536700D03*
X-1294900Y-409700D03*
X-1193300Y-409700D03*
X-901200Y-320800D03*
X-1294900Y-612900D03*
X-926600Y-600200D03*
X-901200Y-397000D03*
X-901200Y-447800D03*
X130000Y-537500D03*
X370000Y-592500D03*
X-640000Y-545000D03*
X-1066300Y-498600D03*
D28*
X-100000Y-272500D03*
X-97500Y-927500D03*
X-417500Y-790000D03*
X-417500Y-520000D03*
X-617500Y-502500D03*
D25*
X-1333000Y-727200D03*
D29*
X-1079000Y-714500D03*
X-1193300Y-714500D03*
X-1231400Y-714500D03*
X-1320300Y-689100D03*
D25*
X-1498100Y-333500D03*
X-1434600Y-295400D03*
X-1498100Y-460500D03*
X-1434600Y-384300D03*
X-1498100Y-587500D03*
X-1434600Y-473200D03*
X-1498100Y-714500D03*
X-1409200Y-612900D03*
X-1294900Y-549400D03*
X-1307600Y-384300D03*
X-1269500Y-536700D03*
X-1282200Y-384300D03*
X-1548900Y-384300D03*
D24*
X-1434600Y-803400D03*
X-1269500Y-257300D03*
X-1002800Y-257300D03*
X-1002800Y-308100D03*
X-812300Y-841500D03*
D25*
X-1485400Y-790700D03*
X-609100Y-816100D03*
X-228100Y-600200D03*
X-1548900Y-511300D03*
D24*
X-1409200Y-803400D03*
X-812300Y-866900D03*
D25*
X-1447300Y-968500D03*
X-609100Y-841500D03*
X64000Y-600200D03*
X-1548900Y-638300D03*
D24*
X-1383800Y-803400D03*
D29*
X-1510800Y-968500D03*
D25*
X-609100Y-866900D03*
X356100Y-600200D03*
X-1548900Y-765300D03*
D24*
X-1358400Y-803400D03*
X-837700Y-905000D03*
D25*
X-609100Y-892300D03*
X660900Y-600200D03*
X-1129800Y-803400D03*
X-164600Y-879600D03*
X-190000Y-879600D03*
D29*
X-88400Y-943100D03*
X1537200Y-943100D03*
X1638800Y-930400D03*
D27*
X-240800Y-917700D03*
X-240800Y-714500D03*
D29*
X-139200Y-714500D03*
X-266200Y-841500D03*
X-63000Y-955800D03*
X76700Y-955800D03*
X229100Y-955800D03*
X343400Y-955800D03*
X521200Y-955800D03*
X622800Y-955800D03*
X813300Y-955800D03*
X914900Y-955800D03*
X1105400Y-955800D03*
X1207000Y-955800D03*
X2119527Y-346200D03*
X-202700Y-701800D03*
X-355100Y-714500D03*
D25*
X102100Y-879600D03*
X127500Y-879600D03*
D29*
X168100Y-943100D03*
X1575300Y-905000D03*
X1930900Y-790700D03*
X1930900Y-739900D03*
D27*
X51300Y-917700D03*
X51300Y-714500D03*
D29*
X152900Y-714500D03*
X25900Y-841500D03*
D25*
X140200Y-930400D03*
X330700Y-778000D03*
X356100Y-778000D03*
X622800Y-778000D03*
X648200Y-778000D03*
X914900Y-778000D03*
X940300Y-778000D03*
X1207000Y-778000D03*
X1232400Y-778000D03*
X1575300Y-892300D03*
X1918200Y-790700D03*
X1918200Y-739900D03*
X1918200Y-625600D03*
X1372100Y-930400D03*
D29*
X89400Y-701800D03*
X-63000Y-714500D03*
D25*
X394200Y-879600D03*
X419600Y-879600D03*
X445000Y-879600D03*
X622800Y-765300D03*
X648200Y-765300D03*
X914900Y-765300D03*
X940300Y-765300D03*
X1207000Y-765300D03*
X1232400Y-765300D03*
X1588000Y-879600D03*
X1867400Y-739900D03*
X1867400Y-714500D03*
X1867400Y-574800D03*
X1867400Y-524000D03*
X1842000Y-371600D03*
D27*
X343400Y-917700D03*
X343400Y-714500D03*
D29*
X445000Y-714500D03*
X318000Y-841500D03*
D25*
X432300Y-917700D03*
X495800Y-917700D03*
X495800Y-892300D03*
X622800Y-752600D03*
X648200Y-752600D03*
X914900Y-752600D03*
X940300Y-752600D03*
X1207000Y-752600D03*
X1232400Y-752600D03*
X1372100Y-905000D03*
X1613400Y-866900D03*
D29*
X381500Y-701800D03*
X229100Y-714500D03*
D25*
X711700Y-879600D03*
X686300Y-879600D03*
X749800Y-892300D03*
X1422900Y-689100D03*
X1613400Y-689100D03*
X1664200Y-689100D03*
X1803900Y-689100D03*
X1803900Y-638300D03*
D27*
X635500Y-917700D03*
X635500Y-714500D03*
D29*
X737100Y-714500D03*
X610100Y-841500D03*
D25*
X737100Y-879600D03*
X1461000Y-701800D03*
X1588000Y-701800D03*
D29*
X673600Y-701800D03*
X521200Y-714500D03*
D25*
X978400Y-879600D03*
X1003800Y-879600D03*
X1041900Y-892300D03*
X1384800Y-689100D03*
X1410200Y-308100D03*
D27*
X927600Y-714500D03*
X927600Y-917700D03*
D29*
X902200Y-841500D03*
X1029200Y-714500D03*
D25*
X1029200Y-879600D03*
X1397500Y-676400D03*
X1537200Y-663700D03*
X1537200Y-574800D03*
X1537200Y-524000D03*
X813300Y-714500D03*
X965700Y-701800D03*
X1295900Y-879600D03*
X1270500Y-879600D03*
X1334000Y-892300D03*
X1384800Y-892300D03*
X1499100Y-714500D03*
X1486400Y-574800D03*
D27*
X1219700Y-917700D03*
X1219700Y-714500D03*
D25*
X1194300Y-841500D03*
X1321300Y-879600D03*
X1397500Y-879600D03*
X1511800Y-714500D03*
X1105400Y-714500D03*
X1257800Y-701800D03*
X-151900Y-320800D03*
X-190000Y-320800D03*
X-151900Y-270000D03*
D27*
X-240800Y-485900D03*
X-240800Y-282700D03*
D25*
X-126500Y-244600D03*
D29*
X-202700Y-498600D03*
X-355100Y-485900D03*
D25*
X102100Y-320800D03*
X140200Y-320800D03*
X140200Y-270000D03*
D27*
X51300Y-485900D03*
X51300Y-282700D03*
D25*
X162700Y-311000D03*
D29*
X89400Y-498600D03*
X-63000Y-485900D03*
D25*
X432300Y-320800D03*
X381500Y-320800D03*
X409800Y-311000D03*
D27*
X343400Y-485900D03*
X343400Y-282700D03*
D25*
X451350Y-314450D03*
X1461000Y-409700D03*
X1499100Y-358900D03*
X1499100Y-320800D03*
X1524500Y-320800D03*
X1651500Y-333500D03*
D29*
X381500Y-498600D03*
X229100Y-485900D03*
D25*
X673600Y-320800D03*
X737100Y-320800D03*
X714600Y-311000D03*
X1168900Y-562100D03*
X1384800Y-638300D03*
D27*
X635500Y-485900D03*
X635500Y-282700D03*
D25*
X760900Y-322400D03*
X1384800Y-625600D03*
X1181600Y-549400D03*
D29*
X673600Y-498600D03*
X521200Y-485900D03*
D25*
X965700Y-320800D03*
X1029200Y-320800D03*
X994000Y-311000D03*
X1473700Y-282700D03*
X1537200Y-333500D03*
D27*
X927600Y-282700D03*
X927600Y-485900D03*
D25*
X1053000Y-322400D03*
X1410200Y-346200D03*
D29*
X813300Y-485900D03*
X965700Y-498600D03*
D25*
X1321300Y-320800D03*
X1257800Y-320800D03*
X1284800Y-309700D03*
X1334000Y-536700D03*
X1334000Y-600200D03*
D27*
X1219700Y-282700D03*
X1219700Y-485900D03*
D25*
X1346700Y-320800D03*
X1486400Y-612900D03*
X1384800Y-612900D03*
X1372100Y-320800D03*
D29*
X1257800Y-498600D03*
X1105400Y-485900D03*
D28*
X-650000Y-670000D03*
X-1015000Y-322500D03*
M02*
